<svg width="40" height="40" viewBox="0 0 40 40" fill="none" xmlns="http://www.w3.org/2000/svg">
<path d="M20 5C16.0218 5 12.2064 6.58035 9.3934 9.3934C6.58035 12.2064 5 16.0218 5 20C5 23.9782 6.58035 27.7936 9.3934 30.6066C12.2064 33.4196 16.0218 35 20 35C23.9782 35 27.7936 33.4196 30.6066 30.6066C33.4196 27.7936 35 23.9782 35 20C35 19.1667 34.9333 18.3333 34.7833 17.5C34.3333 16.6667 33.3333 16.6667 33.3333 16.6667H30V15C30 13.3333 28.3333 13.3333 28.3333 13.3333H25V11.6667C25 10 23.3333 10 23.3333 10H21.6667V6.66667C21.6667 5 20 5 20 5ZM15.8333 10C16.4964 10 17.1323 10.2634 17.6011 10.7322C18.0699 11.2011 18.3333 11.837 18.3333 12.5C18.3333 13.163 18.0699 13.7989 17.6011 14.2678C17.1323 14.7366 16.4964 15 15.8333 15C15.1703 15 14.5344 14.7366 14.0656 14.2678C13.5967 13.7989 13.3333 13.163 13.3333 12.5C13.3333 11.837 13.5967 11.2011 14.0656 10.7322C14.5344 10.2634 15.1703 10 15.8333 10ZM10.8333 16.6667C11.4964 16.6667 12.1323 16.9301 12.6011 17.3989C13.0699 17.8677 13.3333 18.5036 13.3333 19.1667C13.3333 19.8297 13.0699 20.4656 12.6011 20.9344C12.1323 21.4033 11.4964 21.6667 10.8333 21.6667C10.1703 21.6667 9.53441 21.4033 9.06557 20.9344C8.59672 20.4656 8.33333 19.8297 8.33333 19.1667C8.33333 18.5036 8.59672 17.8677 9.06557 17.3989C9.53441 16.9301 10.1703 16.6667 10.8333 16.6667ZM19.1667 18.3333C19.8297 18.3333 20.4656 18.5967 20.9344 19.0656C21.4033 19.5344 21.6667 20.1703 21.6667 20.8333C21.6667 21.4964 21.4033 22.1323 20.9344 22.6011C20.4656 23.0699 19.8297 23.3333 19.1667 23.3333C18.5036 23.3333 17.8677 23.0699 17.3989 22.6011C16.9301 22.1323 16.6667 21.4964 16.6667 20.8333C16.6667 20.1703 16.9301 19.5344 17.3989 19.0656C17.8677 18.5967 18.5036 18.3333 19.1667 18.3333ZM27.5 21.6667C28.163 21.6667 28.7989 21.9301 29.2678 22.3989C29.7366 22.8677 30 23.5036 30 24.1667C30 24.8297 29.7366 25.4656 29.2678 25.9344C28.7989 26.4033 28.163 26.6667 27.5 26.6667C26.837 26.6667 26.2011 26.4033 25.7322 25.9344C25.2634 25.4656 25 24.8297 25 24.1667C25 23.5036 25.2634 22.8677 25.7322 22.3989C26.2011 21.9301 26.837 21.6667 27.5 21.6667ZM18.3333 26.6667C18.9964 26.6667 19.6323 26.9301 20.1011 27.3989C20.5699 27.8677 20.8333 28.5036 20.8333 29.1667C20.8333 29.8297 20.5699 30.4656 20.1011 30.9344C19.6323 31.4033 18.9964 31.6667 18.3333 31.6667C17.6703 31.6667 17.0344 31.4033 16.5656 30.9344C16.0967 30.4656 15.8333 29.8297 15.8333 29.1667C15.8333 28.5036 16.0967 27.8677 16.5656 27.3989C17.0344 26.9301 17.6703 26.6667 18.3333 26.6667Z" fill="#006633"/>
</svg>
