<svg width="500" height="500" viewBox="0 0 500 500" fill="none" xmlns="http://www.w3.org/2000/svg">
<path d="M500 382.4H0V382.65H500V382.4Z" fill="#EBEBEB"/>
<path d="M449.9 398.49H416.78V398.74H449.9V398.49Z" fill="#EBEBEB"/>
<path d="M331.22 401.21H322.53V401.46H331.22V401.21Z" fill="#EBEBEB"/>
<path d="M415.78 389.21H396.59V389.46H415.78V389.21Z" fill="#EBEBEB"/>
<path d="M95.65 390.89H52.46V391.14H95.65V390.89Z" fill="#EBEBEB"/>
<path d="M110.89 390.89H104.56V391.14H110.89V390.89Z" fill="#EBEBEB"/>
<path d="M225.15 395.11H131.47V395.36H225.15V395.11Z" fill="#EBEBEB"/>
<path d="M237 337.8H43.91C42.3973 337.797 40.9476 337.195 39.8789 336.124C38.8102 335.054 38.21 333.603 38.21 332.09V60.66C38.2232 59.156 38.8292 57.718 39.8964 56.6582C40.9637 55.5985 42.406 55.0026 43.91 55H237C238.514 55 239.967 55.6016 241.038 56.6724C242.108 57.7433 242.71 59.1956 242.71 60.71V332.09C242.71 333.604 242.108 335.057 241.038 336.128C239.967 337.198 238.514 337.8 237 337.8V337.8ZM43.91 55.2C42.4637 55.2026 41.0774 55.7791 40.0557 56.8027C39.0339 57.8264 38.46 59.2136 38.46 60.66V332.09C38.46 333.536 39.0339 334.924 40.0557 335.947C41.0774 336.971 42.4637 337.547 43.91 337.55H237C238.447 337.547 239.835 336.971 240.858 335.948C241.881 334.924 242.457 333.537 242.46 332.09V60.66C242.457 59.2127 241.881 57.8255 240.858 56.8021C239.835 55.7787 238.447 55.2026 237 55.2H43.91Z" fill="#EBEBEB"/>
<path d="M453.31 337.8H260.21C258.696 337.797 257.246 337.195 256.175 336.125C255.105 335.054 254.503 333.604 254.5 332.09V60.66C254.516 59.1551 255.124 57.7171 256.193 56.6576C257.262 55.5981 258.705 55.0025 260.21 55H453.31C454.812 55.0052 456.252 55.6022 457.317 56.6617C458.382 57.7212 458.987 59.1578 459 60.66V332.09C459 333.601 458.401 335.05 457.335 336.121C456.268 337.191 454.821 337.795 453.31 337.8V337.8ZM260.21 55.2C258.763 55.2026 257.375 55.7787 256.352 56.8021C255.329 57.8255 254.753 59.2127 254.75 60.66V332.09C254.753 333.537 255.329 334.924 256.352 335.948C257.375 336.971 258.763 337.547 260.21 337.55H453.31C454.757 337.547 456.145 336.971 457.168 335.948C458.191 334.924 458.767 333.537 458.77 332.09V60.66C458.767 59.2127 458.191 57.8255 457.168 56.8021C456.145 55.7787 454.757 55.2026 453.31 55.2H260.21Z" fill="#EBEBEB"/>
<path d="M139.09 344.7L144 355.94C144.922 358.064 146.445 359.873 148.382 361.143C150.318 362.414 152.584 363.09 154.9 363.09H175.37C178.085 363.088 180.689 362.009 182.61 360.09H220.84C222.317 360.09 223.772 359.739 225.086 359.066C226.401 358.393 227.537 357.418 228.4 356.22L233.45 349.22L139.09 344.7Z" fill="#E0E0E0"/>
<path d="M170.24 300.14C170.24 305.53 191.72 343.81 193.87 345.33C196.02 346.85 224.06 345.15 224.06 345.15L222 353.09H145L113 291L134.15 260.47L172.7 261.54C172.7 261.54 170.24 294.76 170.24 300.14Z" fill="#E6E6E6"/>
<path d="M170.24 300.14C170.24 305.53 191.72 343.81 193.87 345.33C196.02 346.85 224.06 345.15 224.06 345.15L222 353.09H145L113 291L134.15 260.47L172.7 261.54C172.7 261.54 170.24 294.76 170.24 300.14Z" fill="#F0F0F0"/>
<path d="M107.69 382.67C125.037 382.67 139.1 365.706 139.1 344.78C139.1 323.854 125.037 306.89 107.69 306.89C90.3427 306.89 76.28 323.854 76.28 344.78C76.28 365.706 90.3427 382.67 107.69 382.67Z" fill="#E0E0E0"/>
<path d="M102.43 368.68C113.371 368.68 122.24 357.979 122.24 344.78C122.24 331.58 113.371 320.88 102.43 320.88C91.4892 320.88 82.62 331.58 82.62 344.78C82.62 357.979 91.4892 368.68 102.43 368.68Z" fill="#EBEBEB"/>
<path d="M97.88 334.51C93.32 334.51 89.63 338.96 89.63 344.46C89.63 349.96 93.32 354.46 97.88 354.46C102.44 354.46 106.13 350 106.13 344.46C106.13 338.92 102.44 334.51 97.88 334.51Z" fill="#E6E6E6"/>
<path d="M97.88 334.51C93.32 334.51 89.63 338.96 89.63 344.46C89.63 349.96 93.32 354.46 97.88 354.46C102.44 354.46 106.13 350 106.13 344.46C106.13 338.92 102.44 334.51 97.88 334.51Z" fill="#E0E0E0"/>
<path d="M282.66 287.54C282.66 287.54 254.31 309.28 243.5 354.09H198.1L241.1 284.09L263.78 274.66L282.66 287.54Z" fill="#E6E6E6"/>
<path d="M285.64 285.33C285.64 285.33 259.12 305.61 246.46 343.74C245.481 346.742 243.579 349.359 241.026 351.218C238.473 353.076 235.398 354.081 232.24 354.09H198.1L241.1 284.09L263.78 274.66L285.64 285.33Z" fill="#E0E0E0"/>
<path d="M282.86 287.09H265.35C262.027 287.054 258.769 288.008 255.99 289.83C245.6 296.75 220.99 316.05 218.43 346.63C218.27 348.648 217.36 350.534 215.879 351.914C214.399 353.295 212.455 354.071 210.43 354.09H134.32C121.531 354.091 108.97 350.699 97.92 344.26L76.16 331.58C73.8194 330.207 71.9669 328.137 70.8622 325.659C69.7576 323.18 69.4561 320.418 70 317.76C72.59 305.28 79.89 283.84 100.78 275.46C101.11 275.31 100.61 275.18 101.61 275.06V262.06H156.17C156.17 262.06 145.23 288.15 145.23 298.91C145.23 309.1 155.99 348.06 169.91 352.06H188.91C191.435 351.999 193.9 351.273 196.056 349.956C198.211 348.64 199.982 346.779 201.19 344.56C210.45 328.03 231.02 285.17 224.61 244.66C223.86 239.93 227.5 235.06 232.3 235.06H256.8C256.8 235.06 278.85 260.58 285.94 282.15C286.65 284.28 285.08 287.09 282.86 287.09Z" fill="#E6E6E6"/>
<path d="M243.56 227H236.56C234.722 226.996 232.94 226.364 231.51 225.21L217.12 213.56C216.554 213.103 215.848 212.852 215.12 212.85H187.49C186.96 212.85 186.451 212.639 186.076 212.264C185.701 211.889 185.49 211.381 185.49 210.85C185.49 210.32 185.701 209.811 186.076 209.436C186.451 209.061 186.96 208.85 187.49 208.85H215.13C216.775 208.852 218.37 209.417 219.65 210.45L234.05 222.1C234.764 222.683 235.658 223.001 236.58 223H243.58C244.552 222.996 245.49 222.644 246.224 222.007C246.958 221.37 247.439 220.491 247.58 219.53L248.21 215.04C248.461 213.326 249.319 211.759 250.627 210.623C251.935 209.487 253.608 208.858 255.34 208.85H260.61C261.14 208.85 261.649 209.061 262.024 209.436C262.399 209.811 262.61 210.32 262.61 210.85C262.61 211.381 262.399 211.889 262.024 212.264C261.649 212.639 261.14 212.85 260.61 212.85H255.34C254.57 212.854 253.827 213.133 253.245 213.638C252.664 214.142 252.282 214.838 252.17 215.6L251.54 220.09C251.259 222.007 250.299 223.76 248.834 225.028C247.37 226.297 245.498 226.997 243.56 227V227Z" fill="#E0E0E0"/>
<path d="M231.24 218.49C231.24 218.49 231.33 223.21 226.9 222.91L225.46 228C225.255 228.721 225.203 229.477 225.308 230.22C225.413 230.962 225.673 231.674 226.07 232.31L229.2 237.31H258.2L260.48 233.01C260.845 232.326 260.983 231.543 260.873 230.775C260.764 230.007 260.412 229.295 259.87 228.74L251.27 220C250.818 219.535 250.277 219.165 249.679 218.912C249.081 218.66 248.439 218.53 247.79 218.53L231.24 218.49Z" fill="#E6E6E6"/>
<path d="M231.24 218.49C231.24 218.49 231.33 223.21 226.9 222.91L225.46 228C225.255 228.721 225.203 229.477 225.308 230.22C225.413 230.962 225.673 231.674 226.07 232.31L229.2 237.31H258.2L260.48 233.01C260.845 232.326 260.983 231.543 260.873 230.775C260.764 230.007 260.412 229.295 259.87 228.74L251.27 220C250.818 219.535 250.277 219.165 249.679 218.912C249.081 218.66 248.439 218.53 247.79 218.53L231.24 218.49Z" fill="#E0E0E0"/>
<path d="M281.04 382.67C298.387 382.67 312.45 365.706 312.45 344.78C312.45 323.854 298.387 306.89 281.04 306.89C263.693 306.89 249.63 323.854 249.63 344.78C249.63 365.706 263.693 382.67 281.04 382.67Z" fill="#E0E0E0"/>
<path d="M275.79 368.68C286.731 368.68 295.6 357.979 295.6 344.78C295.6 331.58 286.731 320.88 275.79 320.88C264.849 320.88 255.98 331.58 255.98 344.78C255.98 357.979 264.849 368.68 275.79 368.68Z" fill="#EBEBEB"/>
<path d="M312 320.34C308.69 314.72 299.84 302.54 283.93 298.98C279.853 298.024 275.625 297.901 271.5 298.62L271.43 298.45L271.5 298.3H271.38L268.64 292.06H265.53C263.005 292.061 260.548 292.882 258.53 294.4L253.07 298.5L255.64 307.41C254.894 308.208 254.199 309.053 253.56 309.94C248.952 315.66 245.811 322.42 244.41 329.63C244.364 329.931 244.383 330.238 244.467 330.531C244.551 330.824 244.697 331.095 244.896 331.326C245.094 331.557 245.341 331.742 245.618 331.869C245.894 331.995 246.195 332.061 246.5 332.06H248.14C248.57 332.067 248.992 331.943 249.35 331.703C249.707 331.464 249.983 331.121 250.14 330.72C251.603 326.851 253.925 323.363 256.93 320.52L266 344.26L273.33 341.18L270.76 311.62C270.76 311.62 287.62 306.89 298.66 320.52C299.302 321.319 300.115 321.965 301.039 322.409C301.963 322.854 302.975 323.087 304 323.09H310.41C310.732 323.091 311.049 323.008 311.329 322.847C311.609 322.687 311.841 322.455 312.002 322.176C312.164 321.897 312.248 321.58 312.248 321.258C312.248 320.935 312.162 320.619 312 320.34V320.34Z" fill="#E6E6E6"/>
<path d="M312 320.34C308.69 314.72 299.84 302.54 283.93 298.98C279.853 298.024 275.625 297.901 271.5 298.62L271.43 298.45L271.5 298.3H271.38L268.64 292.06H265.53C263.005 292.061 260.548 292.882 258.53 294.4L253.07 298.5L255.64 307.41C254.894 308.208 254.199 309.053 253.56 309.94C248.952 315.66 245.811 322.42 244.41 329.63C244.364 329.931 244.383 330.238 244.467 330.531C244.551 330.824 244.697 331.095 244.896 331.326C245.094 331.557 245.341 331.742 245.618 331.869C245.894 331.995 246.195 332.061 246.5 332.06H248.14C248.57 332.067 248.992 331.943 249.35 331.703C249.707 331.464 249.983 331.121 250.14 330.72C251.603 326.851 253.925 323.363 256.93 320.52L266 344.26L273.33 341.18L270.76 311.62C270.76 311.62 287.62 306.89 298.66 320.52C299.302 321.319 300.115 321.965 301.039 322.409C301.963 322.854 302.975 323.087 304 323.09H310.41C310.732 323.091 311.049 323.008 311.329 322.847C311.609 322.687 311.841 322.455 312.002 322.176C312.164 321.897 312.248 321.58 312.248 321.258C312.248 320.935 312.162 320.619 312 320.34V320.34Z" fill="#F0F0F0"/>
<path d="M271.24 334.51C266.68 334.51 262.99 338.96 262.99 344.46C262.99 349.96 266.68 354.46 271.24 354.46C275.8 354.46 279.49 350 279.49 344.46C279.49 338.92 275.8 334.51 271.24 334.51Z" fill="#E6E6E6"/>
<path d="M271.24 334.51C266.68 334.51 262.99 338.96 262.99 344.46C262.99 349.96 266.68 354.46 271.24 354.46C275.8 354.46 279.49 350 279.49 344.46C279.49 338.92 275.8 334.51 271.24 334.51Z" fill="#E0E0E0"/>
<path d="M241.53 238.46C241.53 238.46 246.72 271.13 263.86 271.36C279.93 271.57 281.43 240.89 266.1 236.18C253.72 232.37 241.53 238.46 241.53 238.46Z" fill="#E6E6E6"/>
<path d="M241.53 238.46C241.53 238.46 246.72 271.13 263.86 271.36C279.93 271.57 281.43 240.89 266.1 236.18C253.72 232.37 241.53 238.46 241.53 238.46Z" fill="#F0F0F0"/>
<path d="M265.666 268.421C272.148 267.641 276.596 260.315 275.603 252.057C274.61 243.799 268.55 237.737 262.069 238.517C255.588 239.296 251.139 246.623 252.132 254.881C253.126 263.139 259.185 269.201 265.666 268.421Z" fill="#F5F5F5"/>
<path d="M259.42 232.05H244.53L245.71 230.13H259.42V232.05Z" fill="#E6E6E6"/>
<path d="M177.59 260.71V264.47C177.59 267.88 174.8 270.09 171.38 270.09H103.76C100.33 270.09 97.59 267.88 97.59 264.47V260.71C97.59 257.3 100.33 255.09 103.76 255.09H171.38C174.8 255.09 177.59 257.3 177.59 260.71Z" fill="#E0E0E0"/>
<path d="M155.59 260.71V264.47C155.627 265.23 155.503 265.989 155.225 266.698C154.947 267.406 154.521 268.047 153.977 268.578C153.432 269.11 152.781 269.519 152.066 269.78C151.351 270.041 150.589 270.146 149.83 270.09H103.76C100.33 270.09 97.59 267.88 97.59 264.47V260.71C97.59 257.3 100.33 255.09 103.76 255.09H149.83C150.589 255.034 151.351 255.14 152.066 255.4C152.781 255.661 153.432 256.07 153.977 256.602C154.521 257.133 154.947 257.774 155.225 258.483C155.503 259.191 155.627 259.95 155.59 260.71Z" fill="#F0F0F0"/>
<path d="M147.08 330V354.12H134.32C121.531 354.121 108.97 350.729 97.92 344.29L76.16 331.58C73.8194 330.207 71.9669 328.137 70.8622 325.658C69.7576 323.18 69.4561 320.418 70 317.76C72.59 305.28 80 283.84 100.93 275.46L101.93 275.51H110.38C115.255 275.512 120.028 276.904 124.14 279.522C128.253 282.139 131.534 285.875 133.6 290.29L142.6 309.59C145.569 315.983 147.098 322.951 147.08 330Z" fill="#F0F0F0"/>
<path d="M203.548 195.304L201.959 196.519L212.791 210.681L214.38 209.466L203.548 195.304Z" fill="#E0E0E0"/>
<path d="M197 193.59H202.1C202.63 193.591 203.147 193.747 203.59 194.039C204.032 194.33 204.38 194.744 204.59 195.23L205.27 196.82C205.445 197.232 205.515 197.681 205.475 198.126C205.434 198.572 205.284 199 205.037 199.374C204.791 199.747 204.455 200.053 204.062 200.266C203.668 200.478 203.227 200.589 202.78 200.59H197.23C196.579 200.592 195.948 200.358 195.456 199.931C194.963 199.505 194.642 198.915 194.55 198.27L194.32 196.68C194.266 196.296 194.294 195.905 194.404 195.533C194.514 195.161 194.702 194.817 194.956 194.524C195.21 194.232 195.524 193.997 195.877 193.835C196.229 193.674 196.612 193.591 197 193.59V193.59Z" fill="#E6E6E6"/>
<path d="M254.437 197.544L251.771 210.206L253.728 210.618L256.394 197.956L254.437 197.544Z" fill="#E0E0E0"/>
<path d="M261.41 193.59H255.92C255.382 193.59 254.862 193.784 254.456 194.137C254.05 194.49 253.785 194.977 253.71 195.51L253.34 198.04C253.296 198.357 253.32 198.681 253.411 198.988C253.502 199.295 253.659 199.579 253.869 199.821C254.079 200.063 254.339 200.256 254.631 200.389C254.923 200.522 255.239 200.59 255.56 200.59H261C261.538 200.59 262.058 200.396 262.464 200.044C262.87 199.691 263.135 199.203 263.21 198.67L263.58 196.14C263.624 195.827 263.601 195.508 263.513 195.204C263.424 194.9 263.273 194.619 263.068 194.378C262.863 194.137 262.609 193.942 262.323 193.806C262.037 193.671 261.726 193.597 261.41 193.59Z" fill="#E6E6E6"/>
<path d="M118.1 255.09V268.76L120.5 270.09V277.63C107.6 279.77 100.06 306.37 100.06 306.37H55.84C54.8722 306.37 53.9138 306.179 53.0196 305.809C52.1255 305.439 51.313 304.896 50.6286 304.211C49.9443 303.527 49.4014 302.714 49.031 301.82C48.6606 300.926 48.47 299.968 48.47 299V168.51C48.47 166.555 49.2465 164.681 50.6286 163.299C52.0108 161.916 53.8854 161.14 55.84 161.14H142.47C143.632 161.138 144.778 161.415 145.81 161.95C147.017 162.568 148.029 163.508 148.735 164.666C149.441 165.823 149.813 167.154 149.81 168.51V255.09H118.1Z" fill="#E6E6E6"/>
<path d="M118.1 255.09V268.76L120.5 270.09V277.63C107.6 279.77 100.06 306.37 100.06 306.37H91V168.45C91 166.726 91.6848 165.073 92.9038 163.854C94.1228 162.635 95.7761 161.95 97.5 161.95H145.83C147.037 162.568 148.049 163.508 148.755 164.666C149.461 165.823 149.833 167.154 149.83 168.51V255.09H118.1Z" fill="#EBEBEB"/>
<path d="M451.89 90.8H308.78V381.32H451.89V90.8Z" fill="#EBEBEB"/>
<path d="M418.94 123.9H384.61V158.23H418.94V123.9Z" fill="#F5F5F5"/>
<path d="M376.56 123.9H342.23V158.23H376.56V123.9Z" fill="#F5F5F5"/>
<path d="M376.56 166.29H342.23V200.62H376.56V166.29Z" fill="#F5F5F5"/>
<path d="M418.94 166.29H384.61V200.62H418.94V166.29Z" fill="#F5F5F5"/>
<path d="M327.83 243.23C327.83 244.337 327.502 245.42 326.886 246.341C326.271 247.262 325.396 247.98 324.373 248.404C323.35 248.827 322.224 248.938 321.137 248.722C320.051 248.506 319.053 247.973 318.27 247.19C317.487 246.407 316.954 245.409 316.738 244.322C316.522 243.236 316.632 242.11 317.056 241.087C317.48 240.064 318.198 239.189 319.119 238.574C320.04 237.958 321.122 237.63 322.23 237.63C322.965 237.63 323.694 237.775 324.373 238.056C325.052 238.338 325.67 238.75 326.19 239.27C326.71 239.79 327.122 240.407 327.404 241.087C327.685 241.766 327.83 242.494 327.83 243.23V243.23Z" fill="#E0E0E0"/>
<path d="M117.62 119.73C117.62 118.239 117.028 116.808 115.975 115.753C114.921 114.697 113.491 114.103 112 114.1C111.455 114.103 110.912 114.183 110.39 114.34C110.471 113.767 110.511 113.189 110.51 112.61C110.51 109.449 109.254 106.417 107.019 104.181C104.783 101.946 101.751 100.69 98.59 100.69C97.8549 100.689 97.1214 100.759 96.4 100.9C95.2252 98.9697 93.4547 97.4736 91.3555 96.6372C89.2562 95.8008 86.9419 95.6696 84.7615 96.2632C82.5812 96.8568 80.6528 98.1431 79.2673 99.9283C77.8818 101.713 77.1141 103.901 77.08 106.16H76.9C74.4062 106.241 72.0415 107.288 70.3059 109.08C68.5704 110.873 67.6 113.27 67.6 115.765C67.6 118.26 68.5704 120.657 70.3059 122.45C72.0415 124.242 74.4062 125.29 76.9 125.37H112.16C113.627 125.331 115.02 124.718 116.041 123.664C117.061 122.61 117.628 121.198 117.62 119.73V119.73Z" fill="#F5F5F5"/>
<path d="M240.92 87.43C240.915 86.5185 240.549 85.6461 239.902 85.0034C239.256 84.3608 238.382 84 237.47 84C237.132 83.9985 236.795 84.0457 236.47 84.14C236.522 83.7925 236.549 83.4415 236.55 83.09C236.554 82.0154 236.321 80.9531 235.866 79.9794C235.411 79.0056 234.747 78.1447 233.92 77.4583C233.093 76.7719 232.124 76.2771 231.083 76.0094C230.043 75.7417 228.955 75.7078 227.9 75.91C227.182 74.7225 226.097 73.8013 224.809 73.286C223.52 72.7708 222.099 72.6896 220.76 73.0548C219.422 73.42 218.239 74.2116 217.391 75.3097C216.542 76.4078 216.075 77.7526 216.06 79.14H216C215.207 79.1073 214.415 79.2353 213.673 79.5163C212.93 79.7973 212.252 80.2256 211.679 80.7753C211.106 81.325 210.651 81.9848 210.339 82.7151C210.028 83.4454 209.867 84.2311 209.867 85.025C209.867 85.819 210.028 86.6047 210.339 87.335C210.651 88.0653 211.106 88.7251 211.679 89.2748C212.252 89.8245 212.93 90.2527 213.673 90.5337C214.415 90.8147 215.207 90.9428 216 90.91H237.6C238.498 90.8762 239.346 90.4938 239.966 89.8439C240.586 89.1941 240.928 88.3281 240.92 87.43V87.43Z" fill="#F5F5F5"/>
<path d="M250 427.56C357.082 427.56 443.89 422.492 443.89 416.24C443.89 409.988 357.082 404.92 250 404.92C142.918 404.92 56.11 409.988 56.11 416.24C56.11 422.492 142.918 427.56 250 427.56Z" fill="#F5F5F5"/>
<path d="M115 391.82C115 391.82 120 380.97 114.3 370.27C108.6 359.57 106.96 357.05 110.59 354.85C114.22 352.65 115.87 363.41 115.87 363.41C117.67 358.556 117.859 353.251 116.41 348.28C113.88 340.54 112.3 327.93 115.75 326.57C119.2 325.21 116.4 342.3 119.39 348.13C120.911 344.042 121.893 339.772 122.31 335.43C122.73 329.21 122.08 319.28 124.8 316.73C127.52 314.18 129.26 315.95 126.59 329.67C125.005 337.872 124.138 346.197 124 354.55C124 354.55 129.9 336.55 133.86 336.02C137.82 335.49 137.86 341.33 134.43 346.38C131 351.43 124.5 360.49 123.43 365.15C123.43 365.15 129.91 351.61 135.73 355.76C141.55 359.91 130.66 368.09 125.8 371.05C120.94 374.01 117.57 392.54 117.57 392.54L115 391.82Z" fill="#FFAD40"/>
<path opacity="0.6" d="M115 391.82C115 391.82 120 380.97 114.3 370.27C108.6 359.57 106.96 357.05 110.59 354.85C114.22 352.65 115.87 363.41 115.87 363.41C117.67 358.556 117.859 353.251 116.41 348.28C113.88 340.54 112.3 327.93 115.75 326.57C119.2 325.21 116.4 342.3 119.39 348.13C120.911 344.042 121.893 339.772 122.31 335.43C122.73 329.21 122.08 319.28 124.8 316.73C127.52 314.18 129.26 315.95 126.59 329.67C125.005 337.872 124.138 346.197 124 354.55C124 354.55 129.9 336.55 133.86 336.02C137.82 335.49 137.86 341.33 134.43 346.38C131 351.43 124.5 360.49 123.43 365.15C123.43 365.15 129.91 351.61 135.73 355.76C141.55 359.91 130.66 368.09 125.8 371.05C120.94 374.01 117.57 392.54 117.57 392.54L115 391.82Z" fill="white"/>
<path d="M119 396.27C119 396.27 114.16 385.35 120 374.73C125.84 364.11 127.49 361.62 123.89 359.38C120.29 357.14 118.5 367.86 118.5 367.86C116.767 362.977 116.644 357.668 118.15 352.71C120.77 345.01 122.5 332.42 119.07 331.02C115.64 329.62 118.23 346.74 115.17 352.52C113.698 348.408 112.766 344.122 112.4 339.77C112.06 333.55 112.82 323.63 110.14 321.05C107.46 318.47 105.68 320.19 108.14 333.95C109.649 342.172 110.439 350.511 110.5 358.87C110.5 358.87 104.81 340.78 100.85 340.2C96.89 339.62 96.85 345.44 100.16 350.55C103.47 355.66 109.93 364.81 110.94 369.48C110.94 369.48 104.63 355.84 98.75 359.91C92.87 363.98 103.67 372.31 108.5 375.34C113.33 378.37 116.5 396.95 116.5 396.95L119 396.27Z" fill="#FFAD40"/>
<path opacity="0.7" d="M119 396.27C119 396.27 114.16 385.35 120 374.73C125.84 364.11 127.49 361.62 123.89 359.38C120.29 357.14 118.5 367.86 118.5 367.86C116.767 362.977 116.644 357.668 118.15 352.71C120.77 345.01 122.5 332.42 119.07 331.02C115.64 329.62 118.23 346.74 115.17 352.52C113.698 348.408 112.766 344.122 112.4 339.77C112.06 333.55 112.82 323.63 110.14 321.05C107.46 318.47 105.68 320.19 108.14 333.95C109.649 342.172 110.439 350.511 110.5 358.87C110.5 358.87 104.81 340.78 100.85 340.2C96.89 339.62 96.85 345.44 100.16 350.55C103.47 355.66 109.93 364.81 110.94 369.48C110.94 369.48 104.63 355.84 98.75 359.91C92.87 363.98 103.67 372.31 108.5 375.34C113.33 378.37 116.5 396.95 116.5 396.95L119 396.27Z" fill="white"/>
<path d="M96.63 388.48H136.65L133.41 417.12H99.87L96.63 388.48Z" fill="#FFAD40"/>
<path d="M355.46 387.49C354.167 387.497 352.878 387.349 351.62 387.05C351.302 386.967 351.004 386.821 350.742 386.623C350.481 386.424 350.261 386.176 350.095 385.892C349.929 385.609 349.821 385.295 349.776 384.969C349.732 384.644 349.752 384.313 349.835 383.995C349.918 383.677 350.064 383.379 350.262 383.117C350.461 382.856 350.709 382.636 350.993 382.47C351.276 382.304 351.59 382.196 351.916 382.151C352.241 382.107 352.572 382.127 352.89 382.21C352.96 382.21 358.19 383.51 360.74 380.46C361.505 379.605 362.067 378.587 362.384 377.484C362.701 376.381 362.764 375.221 362.57 374.09C361.88 370.74 358.57 367.5 353.11 364.71C342.62 359.39 344.48 353.41 345.3 351.71C347.02 348.14 351.58 346.09 354.68 347.51C354.986 347.641 355.263 347.832 355.494 348.072C355.726 348.311 355.907 348.594 356.027 348.905C356.148 349.216 356.205 349.547 356.195 349.88C356.186 350.213 356.11 350.54 355.972 350.844C355.834 351.147 355.637 351.419 355.392 351.645C355.147 351.871 354.86 352.046 354.547 352.159C354.234 352.272 353.901 352.322 353.568 352.305C353.236 352.288 352.91 352.205 352.61 352.06C351.996 352.104 351.405 352.313 350.9 352.665C350.395 353.017 349.994 353.499 349.74 354.06C349.06 355.79 351.22 358.17 355.37 360.28C362.37 363.83 366.45 368.15 367.46 373.12C367.812 374.985 367.735 376.905 367.236 378.736C366.737 380.568 365.829 382.261 364.58 383.69C363.435 384.959 362.024 385.957 360.447 386.614C358.87 387.272 357.167 387.571 355.46 387.49V387.49Z" fill="#263238"/>
<g opacity="0.2">
<path opacity="0.2" d="M355.46 387.49C354.167 387.497 352.878 387.349 351.62 387.05C351.302 386.967 351.004 386.821 350.742 386.623C350.481 386.424 350.261 386.176 350.095 385.892C349.929 385.609 349.821 385.295 349.776 384.969C349.732 384.644 349.752 384.313 349.835 383.995C349.918 383.677 350.064 383.379 350.262 383.117C350.461 382.856 350.709 382.636 350.993 382.47C351.276 382.304 351.59 382.196 351.916 382.151C352.241 382.107 352.572 382.127 352.89 382.21C352.96 382.21 358.19 383.51 360.74 380.46C361.505 379.605 362.067 378.587 362.384 377.484C362.701 376.381 362.764 375.221 362.57 374.09C361.88 370.74 358.57 367.5 353.11 364.71C342.62 359.39 344.48 353.41 345.3 351.71C347.02 348.14 351.58 346.09 354.68 347.51C354.986 347.641 355.263 347.832 355.494 348.072C355.726 348.311 355.907 348.594 356.027 348.905C356.148 349.216 356.205 349.547 356.195 349.88C356.186 350.213 356.11 350.54 355.972 350.844C355.834 351.147 355.637 351.419 355.392 351.645C355.147 351.871 354.86 352.046 354.547 352.159C354.234 352.272 353.901 352.322 353.568 352.305C353.236 352.288 352.91 352.205 352.61 352.06C351.996 352.104 351.405 352.313 350.9 352.665C350.395 353.017 349.994 353.499 349.74 354.06C349.06 355.79 351.22 358.17 355.37 360.28C362.37 363.83 366.45 368.15 367.46 373.12C367.812 374.985 367.735 376.905 367.236 378.736C366.737 380.568 365.829 382.261 364.58 383.69C363.435 384.959 362.024 385.957 360.447 386.614C358.87 387.272 357.167 387.571 355.46 387.49V387.49Z" fill="white"/>
</g>
<path d="M324.52 391.15L323.85 389.69C321.57 389.36 319.28 388.96 317 388.59C318.52 397.489 320.7 406.264 323.52 414.84C323.52 414.84 319.77 414.7 321.04 417.12H326.92C327.6 416.3 321 402 324.52 391.15Z" fill="#263238"/>
<path d="M336.54 391.36C336.54 391.36 339.27 399.63 344.63 405.04L340.58 414.59C340.58 414.59 337.33 415.33 337.99 417.12H342.53C342.53 417.12 348.8 406.63 349.07 405.5C349.34 404.37 350.52 392.77 350.52 392.77L336.54 391.36Z" fill="#263238"/>
<path opacity="0.2" d="M324.52 391.15L323.85 389.69C321.57 389.36 319.28 388.96 317 388.59C318.52 397.489 320.7 406.264 323.52 414.84C323.52 414.84 319.77 414.7 321.04 417.12H326.92C327.6 416.3 321 402 324.52 391.15Z" fill="white"/>
<path opacity="0.2" d="M336.54 391.36C336.54 391.36 339.27 399.63 344.63 405.04L340.58 414.59C340.58 414.59 337.33 415.33 337.99 417.12H342.53C342.53 417.12 348.8 406.63 349.07 405.5C349.34 404.37 350.52 392.77 350.52 392.77L336.54 391.36Z" fill="white"/>
<path d="M356 384.12C352.66 379.43 346.95 381.56 330.49 375.93C314.03 370.3 320.6 352.72 320.6 352.72L315.1 357.13L309.26 353.77C308.281 354.891 307.587 356.232 307.239 357.679C306.891 359.126 306.898 360.636 307.26 362.08C308.45 367.23 312.26 375.27 312.67 381.22L309.57 391.88C309.57 391.88 299.09 394.08 298.16 396.3C297.23 398.52 298.82 402.09 298.82 402.09L301.73 401.86L300.21 397.86C305.02 396.25 313.21 396.09 314.91 395.29C317.275 394.098 319.356 392.409 321.01 390.34C322.1 391.25 328.67 396.08 345.64 395.97C345.64 395.97 351.33 403.6 357.24 405.52L358.18 414.74C358.18 414.74 354.6 414.9 354.74 417.1H361.06L361.68 404.04C357.9 394.26 359.22 388.69 356 384.12Z" fill="#263238"/>
<path opacity="0.4" d="M356 384.12C352.66 379.43 346.95 381.56 330.49 375.93C314.03 370.3 320.6 352.72 320.6 352.72L315.1 357.13L309.26 353.77C308.281 354.891 307.587 356.232 307.239 357.679C306.891 359.126 306.898 360.636 307.26 362.08C308.45 367.23 312.26 375.27 312.67 381.22L309.57 391.88C309.57 391.88 299.09 394.08 298.16 396.3C297.23 398.52 298.82 402.09 298.82 402.09L301.73 401.86L300.21 397.86C305.02 396.25 313.21 396.09 314.91 395.29C317.275 394.098 319.356 392.409 321.01 390.34C322.1 391.25 328.67 396.08 345.64 395.97C345.64 395.97 351.33 403.6 357.24 405.52L358.18 414.74C358.18 414.74 354.6 414.9 354.74 417.1H361.06L361.68 404.04C357.9 394.26 359.22 388.69 356 384.12Z" fill="white"/>
<path d="M313.28 359.26C313.05 359.71 312.68 359.99 312.45 359.87C312.22 359.75 312.23 359.29 312.45 358.87C312.67 358.45 313.05 358.14 313.28 358.26C313.51 358.38 313.51 358.81 313.28 359.26Z" fill="#263238"/>
<path d="M309.87 354C309.87 354 309.31 353.5 309.11 353.5C308.91 353.5 308.66 354.5 308.66 354.5L309.87 354Z" fill="#A24E3F"/>
<path opacity="0.2" d="M315.08 357.13C315.774 357.701 316.404 358.345 316.96 359.05L319.13 354.5L315.08 357.13Z" fill="black"/>
<path d="M319 193.7C319 193.7 319.28 190.43 318.42 189.31C317.56 188.19 307.42 181.69 306.91 182.4C306.4 183.11 304.3 188.4 304.42 189.95C304.54 191.5 312.28 198.34 313.42 197.5C314.56 196.66 319 193.7 319 193.7Z" fill="#B97964"/>
<path d="M366.83 179.11C359.13 179.9 345.88 203.44 342.12 203.24C338.36 203.04 316.8 191.18 316.8 191.18L313 196.91C313 196.91 337 214 343.51 213.61C350.02 213.22 368.63 190.39 368.63 190.39L366.83 179.11Z" fill="#B97964"/>
<path d="M376.57 367.89C382.95 375.89 388.68 383.19 393.68 388.49C398.68 393.86 401.26 397.19 401.26 397.19L406.2 394.35C406.2 394.35 401.63 387.12 395.43 377.15C390.16 368.69 383.71 358.25 377.85 348.58C370.27 336.08 363.68 324.87 361.94 320.86C360.7 318.01 364.06 307.06 367.77 296.74C371.54 286.23 375.68 276.36 375.68 276.36L362.19 253.51C362.19 253.51 356.7 268.72 351.82 284.77C348.61 295.27 345.69 306.14 344.7 313.36C343.32 323.45 360.73 348 376.57 367.89Z" fill="#B97964"/>
<path opacity="0.2" d="M376.52 367.89C382.9 375.89 389.03 383.19 393.59 388.49C394.24 385.23 394.9 381.37 395.42 377.16C390.15 368.7 383.7 358.26 377.84 348.59C377.964 355.049 377.523 361.507 376.52 367.89V367.89Z" fill="black"/>
<path opacity="0.2" d="M351.82 284.78L367.77 296.78C371.54 286.27 375.68 276.4 375.68 276.4L362.19 253.55C362.19 253.55 356.7 268.73 351.82 284.78Z" fill="black"/>
<path d="M379.68 408.87L385.43 409.62C385.43 409.62 393.68 369.01 393.43 335.5C396.493 324.411 398.884 313.147 400.59 301.77C402.59 288.05 403.59 272.77 400.93 261.37L380.93 270.37L380.52 300.37L380.18 325.37L379.68 408.87Z" fill="#B97964"/>
<path opacity="0.2" d="M380.52 300.37L400.59 301.77C402.59 288.05 403.59 272.77 400.93 261.37L380.93 270.37L380.52 300.37Z" fill="black"/>
<path d="M405.87 391.21C405.28 390.78 400.3 398.21 400.3 398.21C400.3 398.21 401.41 405.98 399.17 411C396.93 416.02 401.29 415.59 404.91 410.83L413.91 399.08C416.47 395.74 412 395.65 405.87 391.21Z" fill="#263238"/>
<path d="M398.46 403.89C398.322 403.874 398.188 403.83 398.067 403.762C397.945 403.694 397.839 403.602 397.753 403.492C397.667 403.383 397.604 403.257 397.568 403.122C397.531 402.988 397.522 402.848 397.54 402.71C397.706 402.052 398.053 401.453 398.54 400.98C397.79 401.33 397.03 401.55 396.64 401.28C396.25 401.01 396.3 400.8 396.4 400.36C396.434 400.163 396.512 399.976 396.628 399.813C396.744 399.651 396.895 399.516 397.07 399.42C398.21 398.76 400.31 399.42 400.42 399.42L400.5 399.47V399.53V399.6V399.69C400.36 400.34 399.63 403.56 398.5 403.83L398.46 403.89ZM400 400.29C399.21 400.96 398.1 402.04 398 402.77C397.987 402.84 397.99 402.912 398.007 402.981C398.024 403.05 398.056 403.114 398.1 403.17C398.32 403.45 398.46 403.42 398.51 403.41C399 403.28 399.64 401.68 400 400.29V400.29ZM398.43 399.6C398.056 399.583 397.684 399.662 397.35 399.83C397.234 399.896 397.133 399.986 397.056 400.095C396.978 400.204 396.925 400.328 396.9 400.46C396.9 400.59 396.84 400.82 396.9 400.89C397.24 401.12 398.57 400.53 399.77 399.78C399.331 399.67 398.882 399.61 398.43 399.6V399.6Z" fill="#FFAD40"/>
<path d="M387.47 406C387.47 405.27 378.47 405.84 378.47 405.84C378.47 405.84 372.97 411.44 367.62 412.7C362.27 413.96 365.26 417.17 371.24 417.17H386.03C390.3 417.12 387.65 413.5 387.47 406Z" fill="#263238"/>
<path d="M373.79 408.08C373.514 408.1 373.239 408.026 373.01 407.87C372.878 407.755 372.785 407.601 372.746 407.431C372.706 407.26 372.722 407.081 372.79 406.92C372.82 406.789 372.879 406.667 372.962 406.561C373.045 406.456 373.15 406.37 373.27 406.31C373.904 406.053 374.596 405.977 375.27 406.09C374.55 405.7 373.91 405.23 373.88 404.76C373.88 404.45 374.06 404.2 374.47 404.01C374.652 403.926 374.85 403.882 375.05 403.882C375.25 403.882 375.448 403.926 375.63 404.01C376.84 404.52 377.63 406.59 377.63 406.7C377.639 406.729 377.639 406.761 377.63 406.79V406.79C377.634 406.816 377.634 406.843 377.63 406.87V406.87C377.633 406.89 377.633 406.91 377.63 406.93V406.93C377.61 406.958 377.582 406.979 377.55 406.99C376.37 407.57 375.097 407.939 373.79 408.08V408.08ZM374.56 406.52C374.196 406.501 373.832 406.569 373.5 406.72C373.438 406.75 373.384 406.794 373.341 406.847C373.297 406.901 373.266 406.963 373.25 407.03C373.16 407.38 373.25 407.47 373.31 407.5C373.73 407.85 375.37 407.36 376.69 406.8C375.992 406.633 375.278 406.54 374.56 406.52ZM375.08 404.33C374.938 404.336 374.799 404.37 374.67 404.43C374.55 404.49 374.35 404.61 374.35 404.73C374.35 405.13 375.66 405.83 376.98 406.33C376.69 405.542 376.153 404.868 375.45 404.41C375.333 404.36 375.207 404.333 375.08 404.33Z" fill="#FFAD40"/>
<path d="M371.64 291.12L350 279.79C356.81 259.11 362.94 247.39 362.94 247.39C384.2 251.03 382.26 267.83 382.26 267.83C382.26 267.83 376.85 279.05 371.64 291.12Z" fill="#263238"/>
<path opacity="0.1" d="M373 287.93C372.54 288.98 372.07 290.05 371.61 291.12L350 279.79C356.8 259.11 362.93 247.39 362.93 247.39C376.05 249.64 380.33 256.9 381.69 262.13C382.193 263.985 382.382 265.912 382.25 267.83C382.25 267.83 377.78 277.15 373 287.93Z" fill="white"/>
<path opacity="0.2" d="M373 287.93C377.75 277.15 382.24 267.83 382.24 267.83C382.372 265.912 382.183 263.985 381.68 262.13C381.004 261.692 380.256 261.377 379.47 261.2C379.47 261.2 373.72 270.27 373 287.93Z" fill="black"/>
<path d="M378.34 295.79L379.08 261.2L361.94 256.2C361.94 256.2 363.29 240.33 365.29 232.51C365.29 232.51 393.14 225.58 397.38 235.02C397.38 235.02 397.38 235.17 397.44 235.22L397.51 235.3C397.51 235.3 405.51 249.38 403.12 295.8L378.34 295.79Z" fill="#263238"/>
<path opacity="0.1" d="M378.34 295.79L379.08 261.2L361.94 256.2C361.94 256.2 363.29 240.33 365.29 232.51C365.29 232.51 393.14 225.58 397.38 235.02C397.38 235.02 397.38 235.17 397.44 235.22L397.51 235.3C397.51 235.3 405.51 249.38 403.12 295.8L378.34 295.79Z" fill="white"/>
<path d="M397.68 230.22V234.94L365.68 232.47V226.88L397.68 230.22Z" fill="#263238"/>
<path d="M386.456 236.344L388.054 236.425L388.471 228.276L386.873 228.194L386.456 236.344Z" fill="#263238"/>
<path d="M372.403 233.365L379.454 233.997L379.934 228.648L372.882 228.016L372.403 233.365Z" fill="white"/>
<path d="M366.035 234.273L367.635 234.353L368.043 226.193L366.443 226.113L366.035 234.273Z" fill="#263238"/>
<path opacity="0.1" d="M386.88 228.248L386.463 236.397L388.061 236.479L388.478 228.329L386.88 228.248Z" fill="white"/>
<path opacity="0.1" d="M367.133 226.058L366.718 234.207L368.316 234.289L368.731 226.139L367.133 226.058Z" fill="white"/>
<path d="M365.29 227.45L397.53 230.24C398.3 218.24 399.06 210.52 406.16 189.16C406.78 187.287 407.447 185.303 408.16 183.21C403.789 181.822 399.324 180.75 394.8 180C390.015 179.151 385.177 178.64 380.32 178.47C374.04 178.47 366.84 179.13 366.84 179.13C366.84 179.13 365.84 179.38 365.17 186.02C364.57 192.25 364 204.74 365.29 227.45Z" fill="#FFAD40"/>
<path opacity="0.6" d="M408.17 183.21C407.44 185.3 406.77 187.29 406.17 189.16C405.57 191.03 404.89 193.05 404.33 194.83C403.01 199.03 401.97 202.65 401.14 205.83C399.078 213.802 397.871 221.972 397.54 230.2L365.3 227.41C364 204.7 364.58 192.21 365.17 185.96C365.82 179.32 366.84 179.07 366.84 179.07C366.84 179.07 368.75 178.88 371.47 178.71C374.02 178.54 377.28 178.39 380.32 178.41C385.175 178.599 390.01 179.131 394.79 180C397.56 180.46 400.31 181 403.02 181.74C404.753 182.18 406.47 182.67 408.17 183.21Z" fill="white"/>
<path d="M405.18 294.37L376.93 294.12L377.43 298.37L403.93 298.12L405.18 294.37Z" fill="#FFAD40"/>
<path d="M373.43 290.87L349.93 278.12L348.68 281.87L371.43 293.12L373.43 290.87Z" fill="#FFAD40"/>
<path d="M383 185.58C390.95 184.58 393.34 181.16 393.34 181.16C390.09 178.1 390.68 173.58 391.51 170.76C391.768 169.866 392.102 168.996 392.51 168.16L382.89 170C383.111 171.322 383.234 172.659 383.26 174C383.296 175.007 383.205 176.015 382.99 177C382.34 179.86 380.71 179.9 380.71 179.9C379 183 383 185.58 383 185.58Z" fill="#B97964"/>
<path opacity="0.2" d="M383.26 174C383.296 175.007 383.205 176.015 382.99 177C386.79 176.5 389.67 173.46 391.48 170.82C391.738 169.926 392.072 169.056 392.48 168.22L382.89 170C383.111 171.323 383.234 172.659 383.26 174V174Z" fill="black"/>
<path d="M397.18 145.16C397.18 145.16 402.7 140.28 408.18 142.78C413.66 145.28 414.18 149.25 412.08 153.6C409.98 157.95 408.27 161.77 410.57 163.35C412.87 164.93 412.21 168.5 409.97 169.55C407.73 170.6 406.27 171.94 408.78 173.06C408.78 173.06 408.38 173.28 406.27 171.94C404.16 170.6 405.88 169.14 406.54 168.16C407.2 167.18 406.01 168.4 404.03 165.54C402.05 162.68 403.37 159.54 404.43 156.25C405.49 152.96 398.18 153.4 398.18 153.4L397.18 145.16Z" fill="#263238"/>
<path d="M393.16 141C393.16 141 387.25 137.12 381.16 137.87C375.07 138.62 369.34 145.74 371.09 150.76C372.84 155.78 374.68 158.14 372.97 159.99C371.26 161.84 370.53 165.21 372.84 166.67C372.432 166.213 372.206 165.622 372.206 165.01C372.206 164.397 372.432 163.806 372.84 163.35C374.29 161.57 379.72 162.49 381.16 158.47C382.6 154.45 389.58 153.4 389.58 153.4L393.74 166.71C393.74 166.71 400.26 164.9 400.92 155.46C401.58 146.02 398.58 140.08 393.16 141Z" fill="#263238"/>
<path d="M384.84 143.45C376.52 143.76 374.01 148.32 373.72 156.92C373.35 167.66 376.01 175.19 386.33 172.51C400.35 168.88 398.66 142.94 384.84 143.45Z" fill="#B97964"/>
<path d="M379.08 156.25C378.457 157.518 377.685 158.706 376.78 159.79C377.036 160.125 377.38 160.382 377.774 160.534C378.167 160.686 378.595 160.726 379.01 160.65L379.08 156.25Z" fill="#A24E3F"/>
<path d="M384.15 155.38C384.15 156.07 384.53 156.62 384.99 156.61C385.45 156.6 385.81 156.04 385.8 155.36C385.79 154.68 385.41 154.13 384.95 154.13C384.49 154.13 384.14 154.7 384.15 155.38Z" fill="#263238"/>
<path d="M385.15 154.16L383.65 153.6C383.65 153.6 384.41 154.84 385.15 154.16Z" fill="#263238"/>
<path d="M375.64 155.36C375.64 156.04 376.02 156.59 376.48 156.58C376.94 156.57 377.3 156.02 377.29 155.33C377.28 154.64 376.9 154.1 376.45 154.11C376 154.12 375.63 154.67 375.64 155.36Z" fill="#263238"/>
<path d="M376.64 154.14L375.14 153.57C375.14 153.57 375.9 154.81 376.64 154.14Z" fill="#263238"/>
<path d="M384 149.63C384.654 149.526 385.324 149.573 385.957 149.769C386.59 149.965 387.169 150.304 387.65 150.76" stroke="#263238" stroke-width="0.707962" stroke-linecap="round" stroke-linejoin="round"/>
<path d="M378 149.5C377.426 149.377 376.832 149.387 376.262 149.527C375.692 149.667 375.161 149.935 374.71 150.31" stroke="#263238" stroke-width="0.707962" stroke-linecap="round" stroke-linejoin="round"/>
<path d="M380.35 163.88C380.779 164.806 381.14 165.762 381.43 166.74L381.96 166.67C384.37 166.33 385.38 165.38 385.77 164.42C385.956 163.971 386.035 163.485 386 163C385.98 162.716 385.919 162.437 385.82 162.17C384.42 163.035 382.852 163.591 381.22 163.8C380.67 163.85 380.35 163.88 380.35 163.88Z" fill="#263238"/>
<path d="M381.17 163.75L381.51 164.59C383.78 164.27 385.34 163.74 385.95 162.95C385.93 162.666 385.869 162.387 385.77 162.12C384.37 162.985 382.802 163.541 381.17 163.75Z" fill="white"/>
<path d="M382 166.67C384.41 166.33 385.42 165.38 385.81 164.42C384.894 164.57 384.011 164.877 383.2 165.33C382.672 165.643 382.254 166.111 382 166.67V166.67Z" fill="#DE5753"/>
<path d="M394.46 157.14C394.46 157.14 390.31 150.45 390.71 145.14C390.71 145.14 373.97 139.01 373.77 155.78C373.77 155.78 371.61 140.98 385.9 140.12C400.19 139.26 400.9 160.19 393.75 166.7C393.75 166.71 397 161.33 394.46 157.14Z" fill="#263238"/>
<path d="M393.16 159C393.207 158.034 393.634 157.126 394.347 156.474C395.061 155.822 396.004 155.479 396.97 155.52C399.56 155.7 400.97 160.95 394.62 162.46C393.7 162.63 393.15 161.75 393.16 159Z" fill="#B97964"/>
<path d="M390.71 145.15C389.919 146.596 389.49 148.212 389.46 149.86C389.46 152.47 393.1 157.48 393.16 158.95C393.22 160.42 392.16 162.95 393.31 164.42C393.126 163.74 393.151 163.021 393.381 162.356C393.611 161.691 394.036 161.111 394.6 160.69C396.6 159.33 398.38 155.17 396.16 152.24C393.94 149.31 396.06 145.51 396.06 145.51C396.06 145.51 393 142 390.71 145.15Z" fill="#263238"/>
<path d="M408.17 183.21C418.11 191.67 394.53 215.62 383.17 221.21C371.81 226.8 332.44 233.56 332.44 233.56L331.65 226.88C331.65 226.88 372.65 217.37 377.94 212.14C383.23 206.91 406.21 181.54 408.17 183.21Z" fill="#B97964"/>
<path d="M331.64 226.88C331.64 226.88 328.87 225.11 327.48 225.35C326.09 225.59 315.62 231.58 316.01 232.35C316.4 233.12 320.16 237.46 321.55 238.06C322.94 238.66 332.63 234.98 332.43 233.56C332.23 232.14 331.64 226.88 331.64 226.88Z" fill="#B97964"/>
<path d="M403 181.72C399.69 185.14 392.44 189.96 381.66 189.13C372.11 188.4 371.31 181.48 371.44 178.75C373.99 178.58 377.25 178.43 380.29 178.45C385.154 178.625 389.999 179.143 394.79 180C397.56 180.44 400.31 181 403 181.72Z" fill="#B97964"/>
<path d="M255.63 86.6799H212.29C208.91 86.6799 206.17 89.42 206.17 92.7999V116.59C206.17 119.97 208.91 122.71 212.29 122.71H255.63C259.01 122.71 261.75 119.97 261.75 116.59V92.7999C261.75 89.42 259.01 86.6799 255.63 86.6799Z" fill="#FFAD40"/>
<path d="M226 109.9V101H229.82V102.35H227.34V104.77H229.13V106.12H227.31V108.55H229.79V109.9H226Z" fill="white"/>
<path d="M231 109.9V101H232.38V102.35V104.77V106.12V108.55H234.86V109.9H231Z" fill="white"/>
<path d="M236 109.9V101H237.38V102.35V104.77V106.12V108.55H239.86V109.9H236Z" fill="white"/>
<path d="M221.34 106.13V109.9H220V101H221.34V104.78H222.96V101H224.31V109.9H222.96V106.13H221.34Z" fill="white"/>
<path d="M243.13 110.12C242.849 110.124 242.569 110.071 242.309 109.962C242.05 109.854 241.815 109.693 241.62 109.49C241.421 109.294 241.264 109.061 241.158 108.803C241.051 108.545 240.998 108.269 241 107.99V103.13C241 102.565 241.224 102.023 241.624 101.624C242.023 101.224 242.565 101 243.13 101C243.695 101 244.237 101.224 244.636 101.624C245.036 102.023 245.26 102.565 245.26 103.13V104.13H243.86V103.13C243.863 103.028 243.845 102.927 243.808 102.832C243.77 102.737 243.713 102.652 243.64 102.58C243.569 102.507 243.483 102.448 243.389 102.409C243.294 102.369 243.193 102.349 243.09 102.35C242.886 102.355 242.691 102.439 242.548 102.585C242.404 102.73 242.323 102.926 242.32 103.13V108C242.32 108.101 242.34 108.201 242.379 108.294C242.419 108.387 242.477 108.47 242.55 108.54C242.62 108.612 242.704 108.668 242.797 108.706C242.89 108.744 242.99 108.762 243.09 108.76C243.192 108.763 243.293 108.744 243.388 108.707C243.482 108.669 243.568 108.612 243.64 108.54C243.712 108.47 243.768 108.386 243.806 108.293C243.844 108.2 243.862 108.1 243.86 108V106.23V104.878V104.13H245.26V107.99C245.267 108.272 245.215 108.552 245.107 108.812C244.998 109.073 244.836 109.307 244.63 109.5C244.435 109.7 244.202 109.857 243.944 109.964C243.686 110.071 243.409 110.124 243.13 110.12Z" fill="white"/>
<path d="M247 106V101H248.4V106L248.3 107.72H247.1L247 106ZM247 109.93V108.58H248.4V109.93H247Z" fill="white"/>
<path d="M214.38 119.55C214.38 119.55 214.83 130.55 205.16 134.79C205.16 134.79 215.16 134.53 221.99 119.55H214.38Z" fill="#FFAD40"/>
<path d="M195.57 409.44L203.94 410.32L205.51 392.27L197.14 391.39L195.57 409.44Z" fill="#EBB376"/>
<path d="M153.82 408.83H161.93L162.6 390.05H154.48L153.82 408.83Z" fill="#EBB376"/>
<path d="M163.05 407.89H153.2C153.038 407.891 152.882 407.947 152.757 408.049C152.631 408.151 152.544 408.292 152.51 408.45L150.91 415.67C150.878 415.823 150.876 415.981 150.905 416.134C150.934 416.288 150.992 416.435 151.078 416.566C151.163 416.697 151.274 416.809 151.403 416.898C151.532 416.986 151.677 417.048 151.83 417.08C151.92 417.09 152.01 417.09 152.1 417.08C155.28 417.03 157.6 416.83 161.61 416.83C164.07 416.83 171.51 417.09 174.91 417.09C178.31 417.09 178.76 413.73 177.37 413.42C171.12 412.06 166.37 410.17 164.37 408.37C164.002 408.056 163.534 407.885 163.05 407.89Z" fill="#263238"/>
<path d="M163.61 409C163.572 408.992 163.536 408.972 163.51 408.944C163.483 408.915 163.465 408.879 163.46 408.84C163.456 408.803 163.462 408.766 163.478 408.732C163.494 408.699 163.519 408.67 163.55 408.65C163.84 408.47 166.46 406.86 167.36 407.32C167.462 407.367 167.548 407.444 167.607 407.54C167.666 407.636 167.694 407.747 167.69 407.86C167.71 408.047 167.684 408.235 167.614 408.41C167.545 408.584 167.433 408.738 167.29 408.86C166.833 409.172 166.282 409.316 165.73 409.27C165.015 409.26 164.304 409.17 163.61 409ZM164.16 408.74C165.108 409.052 166.139 408.999 167.05 408.59C167.147 408.505 167.221 408.398 167.267 408.277C167.312 408.157 167.327 408.027 167.31 407.9C167.31 407.74 167.24 407.67 167.19 407.67C167.113 407.629 167.026 407.612 166.94 407.62C165.949 407.814 165.005 408.197 164.16 408.75V408.74Z" fill="#FFAD40"/>
<path d="M163.55 409.05C163.523 409.031 163.5 409.005 163.484 408.976C163.469 408.946 163.46 408.913 163.46 408.88C163.46 408.77 163.67 406.43 164.61 405.67C164.721 405.576 164.85 405.505 164.989 405.462C165.129 405.419 165.275 405.405 165.42 405.42C165.567 405.42 165.709 405.47 165.822 405.563C165.935 405.656 166.012 405.786 166.04 405.93C166.21 406.79 164.59 408.57 163.75 409.02H163.66C163.645 409.032 163.627 409.041 163.608 409.047C163.589 409.052 163.569 409.053 163.55 409.05V409.05ZM164.85 405.9C164.28 406.629 163.948 407.516 163.9 408.44C164.73 407.81 165.76 406.44 165.66 405.93C165.66 405.88 165.66 405.73 165.38 405.73H165.29C165.127 405.73 164.971 405.791 164.85 405.9Z" fill="#FFAD40"/>
<path d="M204.82 407.63H195C194.838 407.631 194.682 407.687 194.557 407.789C194.431 407.89 194.344 408.032 194.31 408.19L192.71 415.41C192.648 415.721 192.71 416.045 192.884 416.31C193.058 416.576 193.33 416.763 193.64 416.83H193.9C197.09 416.78 199.41 416.58 203.41 416.58C205.87 416.58 213.31 416.84 216.71 416.84C220.11 416.84 220.56 413.48 219.17 413.17C212.92 411.81 208.17 409.92 206.17 408.17C205.804 407.827 205.322 407.634 204.82 407.63V407.63Z" fill="#263238"/>
<path d="M205.38 408.76C205.341 408.75 205.305 408.729 205.279 408.698C205.252 408.668 205.235 408.63 205.23 408.59C205.227 408.552 205.235 408.514 205.252 408.48C205.27 408.447 205.297 408.419 205.33 408.4C205.62 408.22 208.24 406.61 209.13 407.07C209.232 407.117 209.318 407.194 209.377 407.29C209.436 407.386 209.464 407.497 209.46 407.61C209.485 407.797 209.461 407.987 209.391 408.162C209.321 408.337 209.207 408.491 209.06 408.61C208.603 408.923 208.052 409.068 207.5 409.02C206.786 409.008 206.075 408.921 205.38 408.76V408.76ZM205.94 408.49C206.884 408.812 207.915 408.758 208.82 408.34C208.917 408.255 208.991 408.148 209.037 408.027C209.082 407.907 209.097 407.777 209.08 407.65C209.08 407.5 209.01 407.42 208.96 407.42C208.882 407.383 208.796 407.366 208.71 407.37C207.722 407.559 206.781 407.939 205.94 408.49Z" fill="#FFAD40"/>
<path d="M205.33 408.8C205.3 408.78 205.275 408.754 205.258 408.722C205.24 408.691 205.231 408.656 205.23 408.62C205.23 408.51 205.44 406.18 206.38 405.41C206.489 405.313 206.618 405.242 206.758 405.2C206.898 405.159 207.046 405.148 207.19 405.17C207.336 405.167 207.478 405.216 207.591 405.307C207.704 405.399 207.782 405.527 207.81 405.67C207.98 406.53 206.36 408.31 205.52 408.77H205.43C205.4 408.789 205.365 408.799 205.33 408.8V408.8ZM206.63 405.64C206.043 406.363 205.694 407.25 205.63 408.18C206.46 407.55 207.49 406.18 207.39 405.67C207.39 405.62 207.39 405.48 207.11 405.48H207.02C206.876 405.49 206.739 405.546 206.63 405.64V405.64Z" fill="#FFAD40"/>
<path opacity="0.2" d="M197.14 391.39L205.51 392.27L204.69 401.58L196.32 400.7L197.14 391.39Z" fill="black"/>
<path opacity="0.2" d="M154.48 390.06H162.6L162.25 399.74H154.13L154.48 390.06Z" fill="black"/>
<path d="M157.83 225.3H200.83C204.92 247.64 217.73 326.71 208.54 397.16L194 395.36C194 395.36 195.35 301.83 182.49 267.25C181.01 285.76 179.25 305.45 177.73 315.92C174 341.71 166 398.06 166 398.06H151.14C151.14 398.06 154.14 344.12 155.57 318.78C157.1 291.27 157.77 231 157.83 225.3Z" fill="#263238"/>
<path opacity="0.2" d="M157.83 225.3H200.83C204.92 247.64 217.73 326.71 208.54 397.16L194 395.36C194 395.36 195.35 301.83 182.49 267.25C181.01 285.76 179.25 305.45 177.73 315.92C174 341.71 166 398.06 166 398.06H151.14C151.14 398.06 154.14 344.12 155.57 318.78C157.1 291.27 157.77 231 157.83 225.3Z" fill="white"/>
<path d="M202.7 156.64C202.7 156.64 228.7 181.17 240.7 185.27C252.7 189.37 283.55 204.56 283.55 204.56L288.28 200.83C288.28 200.62 291.73 203.29 291.77 205.14C291.77 206.48 288.38 217.71 287.67 217.7C284.37 217.7 280.72 210.14 280.72 210.14C280.72 210.14 241.22 199.85 234.13 196.75C227.04 193.65 197.88 170.89 197.88 170.89L202.7 156.64Z" fill="#EBB376"/>
<path d="M196.93 150.75C202.87 150.57 234.2 178.07 236.63 180.84C239.06 183.61 263.4 191.91 266.16 196.07C268.92 200.23 264.78 205.14 258.05 205.74C251.32 206.34 204.92 185.51 197.86 175.36C190.8 165.21 196.93 150.75 196.93 150.75Z" fill="#FFAD40"/>
<path opacity="0.2" d="M196.93 150.75C202.87 150.57 234.2 178.07 236.63 180.84C239.06 183.61 263.4 191.91 266.16 196.07C268.92 200.23 264.78 205.14 258.05 205.74C251.32 206.34 204.92 185.51 197.86 175.36C190.8 165.21 196.93 150.75 196.93 150.75Z" fill="black"/>
<path d="M212.2 173.21L215.63 242.89H262.21L297.81 234.37V168.87L248 168.59L212.2 173.21Z" fill="#FFAD40"/>
<path opacity="0.6" d="M212.2 173.21L215.63 242.89H262.21L297.81 234.37V168.87L248 168.59L212.2 173.21Z" fill="white"/>
<path opacity="0.2" d="M212.2 173.21L259.44 174.8L262.21 242.89H215.63L212.2 173.21Z" fill="white"/>
<path opacity="0.4" d="M259.44 174.8L297.81 168.87L248 168.59L212.2 173.21L259.44 174.8Z" fill="white"/>
<path opacity="0.2" d="M229.85 173.8L235.9 172.86L243.42 173.21L236.63 174.03V177.86L230.16 177.41L229.85 173.8Z" fill="black"/>
<path opacity="0.2" d="M265.51 168.69L263.53 169.1H270.25L272.69 168.73L265.51 168.69Z" fill="black"/>
<path opacity="0.2" d="M262.21 180.44L262.74 187.17L275.53 184.99V178.37L262.21 180.44Z" fill="black"/>
<path opacity="0.2" d="M282.25 227.85V236.02L296.23 232.73V225.3L282.25 227.85Z" fill="black"/>
<path opacity="0.2" d="M246.52 225.3C246.52 225.3 247.84 229.39 250.34 230.66V237.74L248.43 239.74H255L251.52 237.5L251.39 230.69C252.382 230.149 253.228 229.377 253.857 228.438C254.486 227.5 254.878 226.423 255 225.3H251.4L250.76 227.45L251.92 227.58L250.76 230V228.76H249.81L250.76 225.34L246.52 225.3Z" fill="black"/>
<path opacity="0.2" d="M182.49 267.26C184.61 273.318 186.219 279.543 187.3 285.87C188.5 269.41 183.69 251.94 183.69 251.94L182.49 267.26Z" fill="black"/>
<path d="M196.93 150.75C196.93 150.75 169.56 149.42 149.16 154.57C149.16 154.57 155.38 210.25 155.77 238.31C155.78 238.908 155.91 239.498 156.15 240.045C156.391 240.592 156.739 241.086 157.173 241.498C157.606 241.909 158.118 242.23 158.677 242.442C159.237 242.653 159.832 242.751 160.43 242.73L201.52 241.3C202.113 241.279 202.696 241.142 203.235 240.895C203.775 240.648 204.26 240.298 204.663 239.863C205.067 239.428 205.38 238.917 205.585 238.361C205.791 237.804 205.884 237.213 205.86 236.62C205.26 221.61 202.9 173.09 196.93 150.75Z" fill="#FFAD40"/>
<path d="M156.91 241.22V245.91L205.16 243.57L204.79 239.72L156.91 241.22Z" fill="#263238"/>
<path d="M179.63 162C179.63 162 188.83 203.34 187.49 241.75" stroke="#263238" stroke-miterlimit="10"/>
<path d="M148.41 177.15C148.41 177.15 156.96 200.74 159.49 205.69C162.02 210.64 211.82 215.52 211.82 215.52C211.82 215.52 222.82 222.64 224.82 222.31C226.82 221.98 231.4 212.64 229.4 211.64C227.4 210.64 221.32 203.76 218.03 203.87C214.74 203.98 211.86 207.64 211.86 207.64C211.86 207.64 170.86 195.89 168.65 195.02C167.07 194.39 160.59 171.55 160.59 171.55L148.41 177.15Z" fill="#EBB376"/>
<path d="M149.17 154.57C142.4 154.74 139.91 165.7 148.41 190.06C153.87 205.74 166.97 214.06 187.49 217.7C208.01 221.34 208.39 209.52 204.11 205.43C199.83 201.34 176.3 195.28 172.51 191.85C168.72 188.42 163.38 154.22 149.17 154.57Z" fill="#FFAD40"/>
<path d="M204.11 205.43L202.83 216.55L206.28 217.7L207.48 205.43H204.11Z" fill="#263238"/>
<path opacity="0.2" d="M149.17 154.57C142.4 154.74 139.91 165.7 148.41 190.06C153.87 205.74 166.97 214.06 187.49 217.7C208.01 221.34 208.39 209.52 204.11 205.43C199.83 201.34 176.3 195.28 172.51 191.85C168.72 188.42 163.38 154.22 149.17 154.57Z" fill="black"/>
<path d="M164.72 150.75C164.72 150.75 178.34 163.39 180.64 162.04C182.94 160.69 183.64 151.56 183.64 151.56L164.72 150.75Z" fill="white"/>
<path d="M164.73 151.81C168.73 155.4 178.36 154.07 178.36 154.07C178.36 154.07 184.36 152.42 183.13 150.53C179.57 149.94 177.85 148.28 177.13 146.16C176.739 144.841 176.617 143.457 176.77 142.09C176.826 141.328 176.927 140.57 177.07 139.82L165.07 130.96C166.68 136.81 168.6 147.57 164.73 151.81Z" fill="#EBB376"/>
<path opacity="0.2" d="M167.88 136.6C168.35 143.77 174.25 145.75 177.14 146.16C176.749 144.841 176.627 143.457 176.78 142.09L167.88 136.6Z" fill="black"/>
<path d="M188.6 114.45C188.6 114.45 190.4 122.66 188.95 128.55C187.5 134.44 185.77 135.05 183.95 135.44C182.13 135.83 182.19 115.16 182.19 115.16L188.6 114.45Z" fill="#FFAD40"/>
<path opacity="0.5" d="M186.91 115.61C186.91 115.61 189.68 123.71 188.23 129.61C186.78 135.51 185.05 136.11 183.17 136.5C181.29 136.89 181.42 116.22 181.42 116.22L186.91 115.61Z" fill="black"/>
<path d="M185.93 111.75C185.93 111.75 189.44 122.5 184.29 127.75C179.14 133 175.74 112.44 175.74 112.44L185.93 111.75Z" fill="#263238"/>
<path d="M168.77 139.3C170.295 140.914 172.307 141.984 174.498 142.345C176.689 142.706 178.938 142.339 180.9 141.3C183.461 139.996 185.428 137.765 186.4 135.06C186.53 134.7 186.65 134.31 186.75 133.92C188.51 126.7 187.46 114.77 179.61 111.54C177.878 110.817 175.99 110.549 174.126 110.762C172.261 110.975 170.482 111.661 168.958 112.756C167.433 113.85 166.214 115.316 165.417 117.015C164.619 118.713 164.269 120.588 164.4 122.46C164.84 130.44 164.71 135.18 168.77 139.3Z" fill="#EBB376"/>
<path d="M176.58 124.72C176.53 125.37 176.92 125.91 177.35 125.91C177.78 125.91 178.13 125.37 178.13 124.72C178.13 124.07 177.79 123.54 177.36 123.54C176.93 123.54 176.59 124.06 176.58 124.72Z" fill="#263238"/>
<path d="M184 124.75C184 125.4 184.35 125.94 184.77 125.94C185.19 125.94 185.55 125.41 185.56 124.76C185.57 124.11 185.21 123.57 184.78 123.57C184.35 123.57 184 124.13 184 124.75Z" fill="#263238"/>
<path d="M181.62 125.07C182.392 127.07 183.435 128.954 184.72 130.67C184.271 130.99 183.757 131.208 183.214 131.309C182.672 131.409 182.114 131.389 181.58 131.25L181.62 125.07Z" fill="#D58745"/>
<path d="M174.3 122.32C174.369 122.328 174.44 122.319 174.504 122.293C174.569 122.267 174.626 122.224 174.67 122.17C174.953 121.781 175.323 121.464 175.75 121.244C176.177 121.023 176.649 120.906 177.13 120.9C177.232 120.905 177.332 120.871 177.408 120.803C177.485 120.736 177.532 120.641 177.54 120.54C177.544 120.49 177.538 120.44 177.523 120.392C177.507 120.344 177.483 120.3 177.45 120.262C177.418 120.224 177.378 120.193 177.333 120.17C177.289 120.147 177.24 120.134 177.19 120.13V120.13C176.581 120.125 175.98 120.264 175.436 120.537C174.891 120.81 174.42 121.209 174.06 121.7C173.998 121.78 173.969 121.881 173.981 121.982C173.992 122.083 174.042 122.175 174.12 122.24V122.24C174.174 122.277 174.236 122.305 174.3 122.32V122.32Z" fill="#263238"/>
<path d="M187.16 122.22C187.235 122.24 187.315 122.24 187.39 122.22C187.436 122.198 187.476 122.168 187.51 122.131C187.544 122.094 187.57 122.05 187.587 122.002C187.603 121.955 187.61 121.905 187.608 121.854C187.605 121.804 187.592 121.755 187.57 121.71V121.71C187.319 121.154 186.939 120.667 186.46 120.289C185.981 119.911 185.419 119.654 184.82 119.54C184.77 119.533 184.719 119.536 184.67 119.549C184.622 119.562 184.576 119.584 184.536 119.615C184.496 119.645 184.462 119.684 184.437 119.728C184.412 119.771 184.396 119.82 184.39 119.87V119.87C184.379 119.97 184.407 120.071 184.468 120.152C184.53 120.232 184.62 120.285 184.72 120.3V120.3C185.19 120.404 185.629 120.616 186.002 120.92C186.376 121.224 186.673 121.611 186.87 122.05C186.904 122.096 186.948 122.135 186.998 122.164C187.048 122.194 187.103 122.212 187.16 122.22V122.22Z" fill="#263238"/>
<path d="M169.51 134.41C169.935 136.02 170.767 137.493 171.926 138.687C173.086 139.882 174.534 140.758 176.13 141.23C180.59 142.45 182.66 140.15 182.66 140.15C181.516 141.328 180.025 142.108 178.405 142.376C176.785 142.644 175.122 142.386 173.66 141.64C171.052 140.315 168.872 138.28 167.37 135.77L169.51 134.41Z" fill="#263238"/>
<path d="M170.34 112.43L170.92 115.95C170.336 116.264 169.891 116.785 169.673 117.411C169.455 118.036 169.478 118.721 169.74 119.33C171.01 122.25 169.52 126.94 167.32 128.88C167.32 128.88 167.2 127.59 166.12 127.94C165.04 128.29 165.64 135 167.9 138.1C167.9 138.1 164.56 135.35 162.45 128.38C160.45 121.94 160.05 116.52 161.27 113.94L170.34 112.43Z" fill="#263238"/>
<path d="M160.86 129C161.746 130.822 163.317 132.221 165.23 132.89C167.76 133.75 169.23 131.51 168.61 129.04C168.08 126.84 166.13 123.68 163.52 123.91C160.91 124.14 159.81 126.75 160.86 129Z" fill="#EBB376"/>
<path d="M188.86 116.06C188.86 116.06 172.32 115.53 171.39 118.76C170.46 121.99 171.33 128.63 171.56 133.24C171.72 136.4 169.14 137.95 166.64 138.1C166.374 138.12 166.106 138.12 165.84 138.1C165.026 138.069 164.231 137.847 163.52 137.45C160.52 135.65 156.94 132.86 154.91 124.67C152.26 113.98 157.34 102.45 172.63 102.31C187.92 102.17 188.86 116.06 188.86 116.06Z" fill="#FFAD40"/>
<path opacity="0.5" d="M187.91 116.25C187.91 116.25 172.32 115.53 171.39 118.76C170.46 121.99 171.33 128.63 171.56 133.24C171.72 136.4 169.14 137.95 166.64 138.1C167.69 137.92 168.79 137.1 168.88 135.1C168.99 132.59 167.31 121.55 168.88 119.43C170.45 117.31 175.77 115.64 181.24 115.22C186.71 114.8 187.91 116.25 187.91 116.25Z" fill="black"/>
<path d="M167 115.67C167 115.67 165.38 117.75 166.17 119.02C166.96 120.29 191.78 118.21 192.08 117.59C192.38 116.97 189.29 115.88 188.83 115.59C188.37 115.3 188.24 112.59 187.34 112.33C186.44 112.07 174 111.21 167 115.67Z" fill="#263238"/>
<path d="M169 117C169.014 117.083 169.012 117.169 168.993 117.251C168.974 117.334 168.939 117.412 168.889 117.481C168.84 117.549 168.778 117.608 168.706 117.652C168.634 117.697 168.554 117.727 168.47 117.74C168.387 117.754 168.301 117.751 168.219 117.732C168.137 117.713 168.059 117.677 167.99 117.628C167.922 117.579 167.863 117.517 167.819 117.445C167.774 117.373 167.744 117.293 167.73 117.21C167.716 117.126 167.719 117.041 167.738 116.959C167.757 116.877 167.793 116.799 167.842 116.73C167.891 116.661 167.953 116.603 168.025 116.558C168.097 116.514 168.177 116.484 168.26 116.47C168.343 116.456 168.429 116.458 168.511 116.477C168.594 116.496 168.672 116.531 168.741 116.58C168.809 116.63 168.868 116.692 168.912 116.764C168.957 116.836 168.987 116.916 169 117V117Z" fill="#FFAD40"/>
<path d="M182 132.77C181.647 133.748 181.367 134.751 181.16 135.77H180.61C178.12 135.65 177 134.77 176.52 133.84C176.295 133.376 176.182 132.866 176.19 132.35C176.188 132.059 176.229 131.769 176.31 131.49C177.816 132.244 179.467 132.664 181.15 132.72C181.64 132.76 182 132.77 182 132.77Z" fill="#263238"/>
<path d="M181.12 132.71L180.85 133.6C178.5 133.48 176.85 133.09 176.16 132.34C176.158 132.049 176.199 131.759 176.28 131.48C177.786 132.234 179.437 132.654 181.12 132.71V132.71Z" fill="white"/>
<path d="M180.58 135.76C178.09 135.64 176.97 134.76 176.49 133.83C177.436 133.889 178.364 134.116 179.23 134.5C179.804 134.763 180.278 135.205 180.58 135.76V135.76Z" fill="#DE5753"/>
<path d="M162.19 152.17L163.51 147.6C163.51 147.6 177.36 152.75 179.63 162.04C179.63 162.04 178.63 150.77 182.06 147.6L184.42 150.6C184.42 150.6 184.72 161.85 180.64 163.23C176.56 164.61 162.19 152.17 162.19 152.17Z" fill="#FFAD40"/>
<path opacity="0.2" d="M162.19 152.17L163.51 147.6C163.51 147.6 177.36 152.75 179.63 162.04C179.63 162.04 178.63 150.77 182.06 147.6L184.42 150.6C184.42 150.6 184.72 161.85 180.64 163.23C176.56 164.61 162.19 152.17 162.19 152.17Z" fill="black"/>
<path d="M210.24 400.56L192.21 397.88L192.76 392.88L211.51 395.34L210.24 400.56Z" fill="#FFAD40"/>
<path opacity="0.6" d="M210.24 400.56L192.21 397.88L192.76 392.88L211.51 395.34L210.24 400.56Z" fill="white"/>
<path d="M167.75 398.18H150.26V392.95L168.41 392.61L167.75 398.18Z" fill="#FFAD40"/>
<path opacity="0.6" d="M167.75 398.18H150.26V392.95L168.41 392.61L167.75 398.18Z" fill="white"/>
</svg>
