<svg width="500" height="500" viewBox="0 0 500 500" fill="none" xmlns="http://www.w3.org/2000/svg">
<path d="M449.9 398.49H416.78V398.74H449.9V398.49Z" fill="#EBEBEB"/>
<path d="M331.22 401.21H322.53V401.46H331.22V401.21Z" fill="#EBEBEB"/>
<path d="M415.78 389.21H396.59V389.46H415.78V389.21Z" fill="#EBEBEB"/>
<path d="M95.65 390.89H52.46V391.14H95.65V390.89Z" fill="#EBEBEB"/>
<path d="M110.89 390.89H104.56V391.14H110.89V390.89Z" fill="#EBEBEB"/>
<path d="M225.15 395.11H131.47V395.36H225.15V395.11Z" fill="#EBEBEB"/>
<path d="M237 337.8H43.92C42.4056 337.8 40.9532 337.198 39.8824 336.128C38.8116 335.057 38.21 333.604 38.21 332.09V60.66C38.2232 59.1543 38.8306 57.7147 39.9 56.6547C40.9694 55.5947 42.4142 54.9999 43.92 55H237C238.514 55 239.967 55.6016 241.038 56.6724C242.108 57.7433 242.71 59.1956 242.71 60.71V332.09C242.71 333.604 242.108 335.057 241.038 336.128C239.967 337.198 238.514 337.8 237 337.8V337.8ZM43.92 55.2C42.4727 55.2026 41.0855 55.7787 40.0621 56.8021C39.0387 57.8255 38.4626 59.2127 38.46 60.66V332.09C38.4626 333.537 39.0387 334.924 40.0621 335.948C41.0855 336.971 42.4727 337.547 43.92 337.55H237C238.447 337.547 239.835 336.971 240.858 335.948C241.881 334.924 242.457 333.537 242.46 332.09V60.66C242.457 59.2127 241.881 57.8255 240.858 56.8021C239.835 55.7787 238.447 55.2026 237 55.2H43.92Z" fill="#EBEBEB"/>
<path d="M453.31 337.8H260.21C258.696 337.797 257.246 337.195 256.175 336.125C255.105 335.054 254.503 333.604 254.5 332.09V60.66C254.516 59.1551 255.124 57.7171 256.193 56.6576C257.262 55.5981 258.705 55.0025 260.21 55H453.31C454.812 55.0052 456.252 55.6022 457.317 56.6617C458.382 57.7212 458.987 59.1578 459 60.66V332.09C459 333.601 458.401 335.05 457.335 336.121C456.268 337.191 454.821 337.795 453.31 337.8V337.8ZM260.21 55.2C258.763 55.2026 257.375 55.7787 256.352 56.8021C255.329 57.8255 254.753 59.2127 254.75 60.66V332.09C254.753 333.537 255.329 334.924 256.352 335.948C257.375 336.971 258.763 337.547 260.21 337.55H453.31C454.757 337.547 456.145 336.971 457.168 335.948C458.191 334.924 458.767 333.537 458.77 332.09V60.66C458.767 59.2127 458.191 57.8255 457.168 56.8021C456.145 55.7787 454.757 55.2026 453.31 55.2H260.21Z" fill="#EBEBEB"/>
<path d="M500 382.4H0V382.65H500V382.4Z" fill="#EBEBEB"/>
<path d="M114.71 196.65C98.94 196.17 54.42 200.48 55.52 179.17C56.46 161.06 78 163.1 78 163.1C78 163.1 78.19 147.39 97.55 145.93C117.41 144.44 119.55 161.49 119.55 161.49C119.55 161.49 154.39 151.82 147.77 178.74C147.77 178.74 166.93 176.35 166.3 188.54C165.55 202.17 130 197.11 114.71 196.65Z" fill="#F0F0F0"/>
<path d="M164.58 320.44V291L144.78 279.6L137.06 255.05L122.51 242.2L115.86 253.93C115.86 253.93 95.86 264.1 97.33 264.47C98.8 264.84 87.33 283.08 87.33 283.08L66.91 298.41L55 311.66L52.43 320.44H164.58Z" fill="#E6E6E6"/>
<path d="M263.6 253.2C262.3 248.07 263.53 230.96 276.6 236.36C289.67 241.76 294.84 247.83 303.46 250.63C312.08 253.43 318.1 247.25 326.58 254.78C335.06 262.31 341.83 257.58 350.58 264.5C359.33 271.42 268.19 271.23 263.6 253.2Z" fill="#F5F5F5"/>
<path d="M455.25 324.66V305.31L450.28 309.31L444.55 324.66H455.25Z" fill="#F0F0F0"/>
<path d="M74.18 317.19C73.2227 318.111 72.3493 319.115 71.57 320.19V320.25L65.7 327L61.7 336.65C60.96 336.87 42.7 336.81 42.7 336.81C41.93 335.12 46 328 47.19 327C50.65 324 56.34 316.5 74.18 317.19Z" fill="#E0E0E0"/>
<path d="M407.36 328.63L423.5 319.09L437.52 328.63H407.36Z" fill="#EBEBEB"/>
<path d="M403.23 320.44H99.82L115 290.09L127.32 282.67L143.95 292.34L161.95 301.49L220.25 282.67L297.69 301.49L301.23 304.82L303.35 304.02C304.057 303.757 304.82 303.681 305.565 303.8C306.309 303.92 307.011 304.229 307.6 304.7L314.98 310.63L331.9 302.13C332.3 301.93 332.738 301.819 333.185 301.803C333.632 301.788 334.077 301.868 334.49 302.04L341.16 304.82L343.6 303.41C344.001 303.177 344.45 303.037 344.912 303.001C345.375 302.964 345.839 303.032 346.272 303.199C346.705 303.366 347.095 303.628 347.413 303.965C347.731 304.303 347.969 304.708 348.11 305.15L350.03 311.09L359.03 307.02C359.521 306.8 360.061 306.71 360.597 306.759C361.133 306.808 361.647 306.994 362.09 307.3L366.85 310.63H376.1C376.535 310.625 376.966 310.711 377.366 310.884C377.766 311.056 378.125 311.31 378.42 311.63L381.49 315.08H392.26C392.762 315.084 393.255 315.208 393.7 315.44L403.23 320.44Z" fill="#F0F0F0"/>
<path d="M164.58 336.67H61.68L65.68 327.02L71.51 320.27V320.21L74.12 317.21L84.73 305L98.48 297.73L103.8 299.16L111.8 313.97L132.65 304.97C132.65 304.97 148.17 323.56 152.65 329.56L164.58 336.67Z" fill="#EBEBEB"/>
<path d="M302.78 321.65L312.78 314.86C313.622 314.285 314.624 313.992 315.643 314.023C316.661 314.053 317.644 314.406 318.45 315.03L336.52 329L347.52 323.83C348.226 323.497 349.001 323.339 349.781 323.369C350.56 323.399 351.321 323.615 352 324L366.21 332.49H297L302.78 321.65Z" fill="#E0E0E0"/>
<path d="M430 260.83C430 273.5 419.73 277.83 407.05 277.83C394.37 277.83 384.11 273.5 384.11 260.83C384.235 254.828 386.708 249.113 390.997 244.913C395.287 240.712 401.051 238.359 407.055 238.359C413.059 238.359 418.823 240.712 423.113 244.913C427.402 249.113 429.875 254.828 430 260.83V260.83Z" fill="#F5F5F5"/>
<path d="M399.71 227.46C398.917 227.276 398.141 227.025 397.39 226.71C395.99 226.16 394.19 225.24 392.32 224.34C390.766 223.567 389.092 223.063 387.37 222.85C386.05 222.7 385.15 222.85 385.03 222.5C384.91 222.15 385.68 221.5 387.29 221.22C389.345 220.937 391.438 221.286 393.29 222.22C395.033 223.12 396.617 224.299 397.98 225.71C399.07 226.77 399.71 227.46 399.71 227.46Z" fill="#E6E6E6"/>
<path d="M407.86 220.9L406.18 221.55C405.18 221.96 403.92 222.55 402.51 223.15C399.7 224.39 397.31 225.68 396.92 225.15C396.74 224.89 397.11 224.26 397.92 223.48C398.991 222.443 400.237 221.603 401.6 221C403 220.394 404.538 220.18 406.05 220.38C406.506 220.438 406.955 220.542 407.39 220.69L407.86 220.9Z" fill="#E6E6E6"/>
<path d="M384.58 232.35L384.12 232.07C383.84 231.89 383.41 231.64 382.89 231.36C381.569 230.657 380.195 230.059 378.78 229.57C375.51 228.41 372.59 228.66 372.5 228.17C372.5 227.95 373.17 227.57 374.43 227.39C376.087 227.195 377.767 227.383 379.34 227.94C380.919 228.486 382.328 229.434 383.43 230.69C383.764 231.055 384.058 231.454 384.31 231.88C384.49 232.18 384.58 232.35 384.58 232.35Z" fill="#E6E6E6"/>
<path d="M387.79 225.6C387.79 225.6 387.32 225.88 386.62 226.27L384 227.74C382 228.82 380.51 230.08 380.13 229.74C379.96 229.58 380.13 229.06 380.64 228.37C381.321 227.482 382.184 226.749 383.17 226.22C384.16 225.682 385.273 225.41 386.4 225.43C386.868 225.432 387.335 225.489 387.79 225.6V225.6Z" fill="#E6E6E6"/>
<path d="M381.88 221.76C381.88 221.76 380.77 221.37 379.08 220.65C377.39 219.93 375.08 218.93 372.62 218.11C370.513 217.398 368.291 217.089 366.07 217.2C364.36 217.3 363.27 217.62 363.12 217.32C362.97 217.02 363.86 216.16 365.78 215.59C368.276 214.948 370.907 215.06 373.34 215.91C375.677 216.741 377.83 218.018 379.68 219.67C380.454 220.323 381.188 221.021 381.88 221.76Z" fill="#E6E6E6"/>
<path d="M389.38 212.22L388.75 212.4C388.35 212.5 387.75 212.67 387.1 212.89C385.395 213.457 383.726 214.125 382.1 214.89C378.3 216.59 375.86 219.11 375.33 218.7C375.09 218.52 375.4 217.59 376.33 216.39C377.625 214.846 379.252 213.615 381.09 212.79C382.927 211.965 384.943 211.62 386.95 211.79C387.551 211.835 388.147 211.935 388.73 212.09L389.38 212.22Z" fill="#E6E6E6"/>
<path d="M356.67 193.19C348.3 192.07 336.36 190.19 334.61 181.93C332.25 170.84 340.61 168.74 343.13 168.59C345.674 168.559 348.211 168.875 350.67 169.53C351.12 169.63 350.81 167.82 351.22 168.03C352.62 163.44 357.13 160.2 361.88 159.54C366.63 158.88 371.5 160.54 375.43 163.3C379.276 166.186 382.569 169.743 385.15 173.8C386.714 172.627 388.562 171.892 390.504 171.671C392.446 171.449 394.412 171.749 396.2 172.54C397.894 173.407 399.317 174.723 400.315 176.343C401.314 177.964 401.848 179.827 401.86 181.73C409.17 181.73 415.64 188.14 415.25 195.45C415.25 196.25 414.75 196.65 414.8 197.45C414.8 197.46 372.53 195.32 356.67 193.19Z" fill="#F5F5F5"/>
<path d="M245.18 423.71C352.262 423.71 439.07 418.642 439.07 412.39C439.07 406.138 352.262 401.07 245.18 401.07C138.098 401.07 51.29 406.138 51.29 412.39C51.29 418.642 138.098 423.71 245.18 423.71Z" fill="#F5F5F5"/>
<path d="M284.15 236.34C279.81 238.8 281.96 255.74 284.2 249.97C288.44 239 289.45 233.34 284.15 236.34Z" fill="#263238"/>
<path d="M279.82 266.64C280.225 266.787 280.587 267.035 280.87 267.36C281.056 267.209 281.253 267.072 281.46 266.95L283.12 265.95C282.725 266.65 282.277 267.318 281.78 267.95C281.738 267.996 281.701 268.046 281.67 268.1C282.62 268.95 284.03 270.29 284.32 270.1C284.91 269.8 286.03 266.69 286.18 266.03C286.489 266.27 286.869 266.4 287.26 266.4C287.651 266.4 288.031 266.27 288.34 266.03C288.663 265.763 288.893 265.401 288.999 264.995C289.105 264.59 289.081 264.161 288.93 263.77C289.203 263.921 289.521 263.971 289.828 263.913C290.134 263.855 290.411 263.691 290.61 263.45C290.797 263.202 290.922 262.913 290.974 262.607C291.027 262.3 291.005 261.986 290.91 261.69C290.787 261.299 290.554 260.952 290.238 260.692C289.922 260.431 289.537 260.267 289.13 260.22C288.522 260.138 287.903 260.252 287.364 260.545C286.824 260.838 286.392 261.295 286.13 261.85C285.797 261.688 285.418 261.642 285.056 261.72C284.693 261.798 284.367 261.995 284.13 262.28C283.88 262.6 283.734 262.989 283.711 263.395C283.688 263.8 283.789 264.203 284 264.55C283.4 264.67 279.24 266.38 279.82 266.64Z" fill="#263238"/>
<path d="M306.47 237.29C307.687 238.933 308.542 240.816 308.978 242.814C309.414 244.811 309.422 246.879 309 248.88C308.096 252.892 305.905 256.499 302.76 259.15C302.2 259.64 300.3 260.67 299.58 260.5C298.86 260.33 299.75 259.16 299.65 258.5C299.586 257.86 299.634 257.214 299.79 256.59C300.784 250.889 299.848 245.019 297.13 239.91C296.06 237.91 293.13 232.97 297.13 232.63C300.63 232.37 304.39 234.6 306.47 237.29Z" fill="#263238"/>
<path d="M282.57 313.35L283.14 331.88L295.53 340L318.9 331.82C318.9 331.82 317.7 318.82 314.9 310.75L282.57 313.35Z" fill="#263238"/>
<path d="M306.76 327.19C305.024 331.397 303.655 335.747 302.67 340.19C302.01 343.01 301.38 346.19 300.89 349.76C300.157 355.014 299.823 360.316 299.89 365.62C299.78 373.71 299.46 378.31 299.46 378.31L285 377.49C285 377.49 283.39 373.1 282.62 364.43C281.7 352.33 281.62 331.88 283.13 319.84L306.76 327.19Z" fill="#263238"/>
<path opacity="0.2" d="M302.67 340.23C302.01 343.05 301.38 346.23 300.89 349.8C299.759 348.508 298.819 347.06 298.1 345.5C293.79 336.24 297.55 325.38 297.55 325.38C299.59 330.67 302 338 302.67 340.23Z" fill="black"/>
<path d="M359.21 390.78L353.88 394.64L333.44 373.37L331.6 371.45L330.36 370.16L338.62 364.69L339 365.18L341.11 367.84L359.21 390.78Z" fill="#FF8B7B"/>
<path d="M350.32 396.14C349.81 396.78 349.17 397.35 348.73 397.35C348.608 397.341 348.493 397.295 348.398 397.218C348.303 397.141 348.234 397.037 348.2 396.92C348.119 396.725 348.119 396.506 348.2 396.31C348.64 395.25 351.1 394.26 351.2 394.22C351.224 394.202 351.254 394.191 351.285 394.191C351.316 394.191 351.346 394.202 351.37 394.22C351.387 394.247 351.396 394.278 351.396 394.31C351.396 394.342 351.387 394.373 351.37 394.4C351.072 395.01 350.721 395.592 350.32 396.14ZM348.66 396.14C348.598 396.216 348.548 396.3 348.51 396.39C348.483 396.45 348.469 396.515 348.469 396.58C348.469 396.646 348.483 396.71 348.51 396.77C348.59 396.98 348.69 397.01 348.76 397.01C349.29 397.01 350.32 395.73 350.96 394.67C350.106 395.022 349.326 395.53 348.66 396.17V396.14Z" fill="#FF9C2F"/>
<path d="M351.41 394.45C351.406 394.462 351.399 394.472 351.391 394.481C351.382 394.49 351.372 394.496 351.36 394.5C350.6 394.9 348.49 395.26 348 394.69C347.87 394.57 347.78 394.33 348 393.97C348.083 393.837 348.192 393.722 348.321 393.632C348.45 393.543 348.596 393.481 348.75 393.45C349.688 393.428 350.611 393.697 351.39 394.22C351.413 394.237 351.432 394.26 351.444 394.286C351.457 394.312 351.462 394.341 351.46 394.37C351.452 394.401 351.434 394.429 351.41 394.45ZM348.31 394.07L348.25 394.13C348.09 394.37 348.17 394.45 348.2 394.49C348.52 394.79 350.04 394.67 350.93 394.33C350.294 393.93 349.551 393.731 348.8 393.76C348.604 393.798 348.429 393.909 348.31 394.07Z" fill="#FF9C2F"/>
<path d="M351.16 391.25L354.59 384.93C354.651 384.814 354.75 384.723 354.869 384.67C354.989 384.617 355.123 384.607 355.25 384.64L361.02 386.29C361.26 386.366 361.462 386.53 361.586 386.749C361.71 386.968 361.747 387.225 361.69 387.47C361.677 387.537 361.654 387.601 361.62 387.66C360.34 389.92 359.12 391.89 357.62 394.73C355.81 398.08 356.67 397.45 354.62 401.42C353.37 403.81 350.43 402.78 350.85 401.7C352.76 396.78 351.63 395.55 350.94 392.88C350.817 392.328 350.895 391.75 351.16 391.25V391.25Z" fill="#263238"/>
<path opacity="0.2" d="M339 365.18L341.11 367.84L334.06 374.03L331.6 371.45L331.17 371.81L327.75 367.48L327.45 367.11L336.72 360.41L337.87 361.62L340.25 364.12L339 365.18Z" fill="black"/>
<path d="M295 327.13C300.36 338.02 308.65 349.74 316.1 359.32C321.53 366.12 325.3 368.89 325.3 368.89L337.84 361.61C337.84 361.61 335.57 357.61 331.19 350.79C326.854 344.481 323.568 337.51 321.46 330.15C320.028 324.958 318.103 319.915 315.71 315.09L315.64 314.95L295 327.13Z" fill="#263238"/>
<path d="M338 358.47L341.21 363.33L340.28 364.12L339 365.17L331.61 371.45L331.18 371.81L328.67 373.94C328.67 373.94 324.06 369.35 324.11 369.32L325 368.62L336.66 359.5L338 358.47Z" fill="#FF9C2F"/>
<path d="M301.14 412.81L294.56 413.08L289.28 384.06L288.81 381.44L288.49 379.68H298.39L298.44 380.29L298.73 383.68L301.14 412.81Z" fill="#FF8B7B"/>
<path d="M291.37 410C290.689 410.101 289.995 409.948 289.42 409.57C289.35 409.471 289.312 409.352 289.312 409.23C289.312 409.108 289.35 408.99 289.42 408.89C289.526 408.707 289.697 408.571 289.9 408.51C290.99 408.16 293.34 409.38 293.44 409.44C293.469 409.455 293.492 409.478 293.506 409.507C293.521 409.536 293.526 409.568 293.52 409.6C293.515 409.631 293.501 409.66 293.48 409.683C293.458 409.706 293.431 409.723 293.4 409.73C292.733 409.881 292.053 409.972 291.37 410V410ZM290.28 408.76C290.178 408.755 290.075 408.772 289.98 408.81C289.915 408.821 289.854 408.848 289.802 408.888C289.75 408.928 289.708 408.98 289.68 409.04C289.57 409.23 289.62 409.33 289.68 409.38C290.01 409.8 291.68 409.74 292.89 409.54C292.081 409.099 291.195 408.817 290.28 408.71V408.76Z" fill="#FF9C2F"/>
<path d="M293.36 409.68C293.349 409.685 293.337 409.687 293.325 409.687C293.313 409.687 293.301 409.685 293.29 409.68C292.49 409.37 290.85 408 290.96 407.25C290.96 407.07 291.1 406.85 291.52 406.79C291.832 406.747 292.149 406.83 292.4 407.02C293.031 407.717 293.427 408.595 293.53 409.53C293.531 409.559 293.525 409.588 293.513 409.614C293.501 409.64 293.483 409.663 293.46 409.68C293.427 409.69 293.393 409.69 293.36 409.68ZM291.64 407.07H291.55C291.27 407.07 291.26 407.22 291.25 407.26C291.25 407.71 292.31 408.78 293.14 409.26C293.034 408.512 292.703 407.815 292.19 407.26C292.033 407.138 291.839 407.074 291.64 407.08V407.07Z" fill="#FF9C2F"/>
<path d="M294 408.73L301.19 408.45C301.321 408.444 301.451 408.483 301.557 408.562C301.662 408.64 301.738 408.752 301.77 408.88L303.31 414.68C303.367 414.926 303.328 415.185 303.202 415.404C303.076 415.623 302.871 415.786 302.63 415.86H302.43C299.83 415.92 297.52 415.86 294.29 416C290.48 416.15 291.47 416.57 286.99 416.81C284.29 416.95 283.68 413.9 284.82 413.71C290.03 412.84 290.51 411.24 292.46 409.28C292.89 408.918 293.437 408.722 294 408.73V408.73Z" fill="#263238"/>
<path opacity="0.2" d="M298.44 380.29L298.73 383.68L289.44 384.95L288.81 381.44L288.25 381.5L287.79 376L287.75 375.52L299.18 375.07L299.47 376.71L300.07 380.1L298.44 380.29Z" fill="black"/>
<path d="M301.29 374.14V380L300.08 380.14L298.45 380.33L288.82 381.48L288.26 381.54L284.99 381.92C284.99 381.92 283.69 375.56 283.75 375.56L284.87 375.47L299.63 374.31L301.29 374.14Z" fill="#FF9C2F"/>
<path d="M283.1 268.48C283.1 268.48 267.1 264.56 265.49 263.54L266.76 265.15C266.059 263.383 265.452 261.581 264.94 259.75C264.37 257.81 263.8 255.86 263.27 253.88L261.65 248C261.1 246 260.58 244.06 259.99 242.06C259.9 241.53 259.603 241.057 259.164 240.745C258.725 240.434 258.18 240.31 257.65 240.4C257.12 240.49 256.647 240.787 256.335 241.226C256.024 241.665 255.9 242.21 255.99 242.74C256.1 244.84 256.31 246.89 256.5 248.97C256.69 251.05 256.99 253.1 257.26 255.17C257.53 257.24 257.89 259.3 258.26 261.38C258.649 263.572 259.19 265.734 259.88 267.85C260.057 268.43 260.406 268.942 260.88 269.32L261.08 269.47C261.08 269.47 270.78 275.88 280.39 276.79C280.99 276.79 281.57 276.79 282.19 276.71C282.81 276.63 283.32 276.63 284.09 276.52C284.639 276.486 285.175 276.341 285.667 276.093C286.158 275.846 286.594 275.501 286.947 275.08C287.301 274.659 287.566 274.17 287.725 273.644C287.885 273.117 287.935 272.564 287.874 272.017C287.813 271.471 287.642 270.942 287.37 270.464C287.099 269.985 286.733 269.567 286.295 269.234C285.857 268.902 285.356 268.662 284.822 268.528C284.288 268.395 283.733 268.372 283.19 268.46L283.1 268.48Z" fill="#FF8B7B"/>
<path d="M260.3 246.06L262.6 240.96L255.32 238.87C255.32 238.87 253.67 242.93 256.25 246.22L260.3 246.06Z" fill="#FF8B7B"/>
<path d="M259.87 235.41H257.94C257.383 235.404 256.843 235.596 256.414 235.951C255.986 236.306 255.697 236.802 255.6 237.35L255.32 238.89L262.6 241L262.2 237.48C262.13 236.911 261.854 236.387 261.425 236.006C260.997 235.625 260.444 235.413 259.87 235.41V235.41Z" fill="#FF8B7B"/>
<path d="M283.74 281.61C280.01 282.43 271.74 278.22 272.03 274.41C272.24 271.25 272.39 268.94 272.6 265.78C273.335 265.159 274.279 264.841 275.24 264.89C277.58 264.816 279.909 265.239 282.074 266.13C284.239 267.021 286.19 268.36 287.8 270.06C288.15 270.44 288.35 274.5 288.61 274.98L290.52 278.59C288.457 279.991 286.161 281.014 283.74 281.61Z" fill="#FF9C2F"/>
<path opacity="0.2" d="M285.63 281.44C286.025 280.831 286.257 280.13 286.305 279.405C286.352 278.68 286.212 277.956 285.9 277.3C282.63 278.94 277.76 278.38 273.84 278.21H274.35C277.61 281.34 281.3 282.76 285.63 281.44Z" fill="black"/>
<path d="M289.89 267.45L284.2 268.93C285.42 273.51 280.28 277.27 279.28 281.93C278.4 285.99 280.47 290.02 281.82 293.93C284.7 302.32 281.9 306.86 281.55 315.71C286.55 316.84 296.55 316.38 315.86 312.32C310.04 299.4 307.2 278.32 310.7 271.03C304.61 267.44 296.73 265.68 289.89 267.45Z" fill="#FF9C2F"/>
<path d="M298.86 256.68C298.86 261.45 298.4 268.37 302.12 268.32C302.12 268.32 300.63 269.85 297.28 273.86C294.37 277.35 288.55 276.86 287.88 272.32C287.48 269.58 287.96 269.37 287.96 269.37C292.03 267.05 291.48 264.5 290.16 260.74L296.16 255.01C297.21 253.91 298.84 254.93 298.86 256.68Z" fill="#FF8B7B"/>
<path opacity="0.2" d="M290.17 260.73L296.17 255.01C298.01 260.06 298.17 262.67 295.72 264.58C294.343 265.564 292.669 266.044 290.98 265.94C291.37 264.46 290.92 262.76 290.17 260.73Z" fill="black"/>
<path d="M305.35 248.06C304.35 254.75 304.12 258.73 300.01 261.88C293.82 266.6 284.72 262.75 283.45 255.88C282.29 249.7 284.18 239.77 291.83 237.7C299.48 235.63 306.35 241.35 305.35 248.06Z" fill="#FF8B7B"/>
<path d="M286.32 246.9C286.15 247.48 285.71 247.85 285.32 247.74C284.93 247.63 284.78 247.08 284.95 246.5C285.12 245.92 285.56 245.55 285.95 245.66C286.34 245.77 286.49 246.32 286.32 246.9Z" fill="#263238"/>
<path d="M286.06 245.72L284.7 244.93C284.7 244.93 285.78 247 286.06 245.72Z" fill="#263238"/>
<path d="M292.86 247.36C292.69 247.94 292.26 248.36 291.86 248.21C291.46 248.06 291.32 247.54 291.49 246.97C291.66 246.4 292.09 246.02 292.49 246.12C292.89 246.22 293 246.8 292.86 247.36Z" fill="#263238"/>
<path d="M292.58 246.18L291.27 245.41C291.27 245.41 292.33 247.47 292.58 246.18Z" fill="#263238"/>
<path d="M295 245.93C294.936 245.923 294.875 245.899 294.824 245.861C294.773 245.822 294.733 245.77 294.71 245.71C294.562 245.295 294.32 244.92 294.003 244.614C293.685 244.309 293.301 244.081 292.88 243.95C292.803 243.916 292.739 243.857 292.702 243.782C292.664 243.706 292.653 243.62 292.672 243.538C292.691 243.456 292.739 243.383 292.806 243.332C292.873 243.282 292.956 243.256 293.04 243.26C293.573 243.417 294.062 243.698 294.465 244.08C294.868 244.463 295.175 244.936 295.36 245.46C295.393 245.546 295.39 245.642 295.353 245.726C295.315 245.81 295.246 245.876 295.16 245.91C295.104 245.925 295.046 245.925 294.99 245.91L295 245.93Z" fill="#263238"/>
<path d="M284.46 243.65C284.389 243.641 284.322 243.609 284.27 243.56C284.237 243.527 284.21 243.489 284.192 243.446C284.174 243.403 284.165 243.357 284.165 243.31C284.165 243.263 284.174 243.217 284.192 243.174C284.21 243.131 284.237 243.093 284.27 243.06C284.633 242.63 285.097 242.296 285.621 242.089C286.144 241.881 286.711 241.806 287.27 241.87C287.361 241.885 287.443 241.935 287.498 242.01C287.552 242.085 287.574 242.179 287.56 242.27C287.543 242.361 287.492 242.442 287.418 242.498C287.344 242.553 287.252 242.579 287.16 242.57V242.57C286.718 242.535 286.274 242.608 285.867 242.782C285.459 242.956 285.1 243.227 284.82 243.57C284.77 243.609 284.711 243.637 284.649 243.651C284.587 243.664 284.522 243.664 284.46 243.65V243.65Z" fill="#263238"/>
<path d="M287.7 247.75C286.757 249.142 285.63 250.4 284.35 251.49C284.637 251.811 284.991 252.067 285.386 252.24C285.781 252.412 286.209 252.498 286.64 252.49L287.7 247.75Z" fill="#FF5652"/>
<path d="M319.79 266.78C319.57 266.94 319.43 266.95 318.79 267.78C318.546 267.656 318.291 267.552 318.03 267.47L316.03 266.77C316.627 267.443 317.275 268.069 317.97 268.64L318.12 268.78C317.29 269.93 316.07 271.73 315.72 271.64C315 271.46 313.04 268.33 312.72 267.64C312.44 267.973 312.06 268.207 311.636 268.304C311.211 268.401 310.767 268.358 310.37 268.18C309.954 267.963 309.617 267.622 309.404 267.205C309.19 266.787 309.112 266.314 309.18 265.85C308.916 266.077 308.582 266.206 308.234 266.216C307.886 266.225 307.545 266.113 307.27 265.9C307.006 265.674 306.8 265.388 306.67 265.066C306.539 264.744 306.488 264.396 306.52 264.05C306.57 263.601 306.745 263.175 307.027 262.821C307.308 262.467 307.684 262.2 308.11 262.05C310.19 261.28 311.23 262.74 311.75 263.12C312.077 262.865 312.48 262.726 312.895 262.726C313.31 262.726 313.713 262.865 314.04 263.12C314.383 263.413 314.631 263.802 314.75 264.237C314.87 264.672 314.856 265.133 314.71 265.56C315.42 265.49 320.37 266.36 319.79 266.78Z" fill="#263238"/>
<path d="M306.68 254.18C305.851 255.296 304.628 256.054 303.26 256.3C301.54 256.55 301.15 254.79 302.01 253.09C302.79 251.59 304.61 249.65 306.15 250.17C307.69 250.69 307.79 252.74 306.68 254.18Z" fill="#CB7A63"/>
<path d="M305 263.71C305.205 263.971 305.467 264.181 305.766 264.324C306.065 264.467 306.392 264.54 306.724 264.536C307.055 264.532 307.381 264.452 307.677 264.302C307.972 264.152 308.229 263.936 308.428 263.67C308.627 263.405 308.762 263.097 308.822 262.772C308.883 262.446 308.868 262.11 308.778 261.791C308.688 261.472 308.526 261.178 308.305 260.932C308.083 260.685 307.808 260.493 307.5 260.37C309.839 257.7 311.274 254.359 311.601 250.825C311.928 247.291 311.129 243.744 309.32 240.69C308.331 238.911 306.785 237.506 304.92 236.69C300.83 235.15 298.09 238.49 297.07 242.03C296 245.83 304.42 262.93 305 263.71Z" fill="#263238"/>
<path d="M294 253.48C293.87 254.073 293.603 254.628 293.22 255.1C292.42 256.1 291.08 256.45 288.91 256.49C288.293 256.521 287.676 256.408 287.11 256.16C286.737 255.997 286.416 255.734 286.181 255.401C285.947 255.068 285.808 254.676 285.78 254.27C285.78 254.27 287.94 253.63 294 253.48Z" fill="#263238"/>
<path d="M293.26 255.1C292.46 256.1 291.12 256.45 288.95 256.49C288.333 256.521 287.716 256.408 287.15 256.16C287.32 255.912 287.522 255.686 287.75 255.49C288.4 254.83 290.96 254.8 292.61 254.83C293.05 254.92 292.93 254.8 293.26 255.1Z" fill="#DE5753"/>
<path d="M286.1 254.22C286.17 254.457 286.298 254.672 286.473 254.847C286.648 255.022 286.863 255.15 287.1 255.22C288.901 255.172 290.693 254.948 292.45 254.55C292.745 254.51 293.022 254.387 293.251 254.196C293.479 254.005 293.649 253.753 293.74 253.47C291.176 253.492 288.619 253.743 286.1 254.22V254.22Z" fill="#FAFAFA"/>
<path d="M303.86 268.37C311.17 268.91 313.33 273.64 313.17 279.53C313.17 280.76 312.91 282.36 312.9 283.53C312.91 283.58 299.46 284.32 303.86 268.37Z" fill="#CB7A63"/>
<path d="M304.83 275.88C305.7 277.81 306.62 279.55 307.58 281.34C308.54 283.13 309.58 284.86 310.58 286.57C312.687 290.028 314.984 293.366 317.46 296.57L317.62 296.77H317.7C318.631 297.737 319.756 298.496 321 299C321.969 299.401 322.973 299.709 324 299.92C325.834 300.297 327.698 300.505 329.57 300.54C331.331 300.59 333.093 300.55 334.85 300.42C336.608 300.291 338.357 300.064 340.09 299.74C340.62 299.715 341.119 299.48 341.476 299.087C341.834 298.694 342.02 298.176 341.995 297.645C341.97 297.115 341.735 296.616 341.342 296.259C340.949 295.901 340.43 295.715 339.9 295.74H339.85C338.25 295.58 336.57 295.44 334.95 295.24C333.33 295.04 331.71 294.82 330.15 294.52C328.657 294.268 327.186 293.9 325.75 293.42C325.151 293.226 324.571 292.975 324.02 292.67C323.7 292.516 323.422 292.286 323.21 292L323.43 292.28C321.43 289.05 319.43 285.87 317.52 282.5C316.58 280.83 315.67 279.16 314.77 277.5C313.87 275.84 312.99 274.09 312.15 272.5V272.43C311.929 271.931 311.611 271.482 311.213 271.108C310.815 270.735 310.346 270.445 309.834 270.257C309.322 270.068 308.777 269.985 308.232 270.011C307.687 270.037 307.153 270.172 306.662 270.409C306.17 270.646 305.731 270.979 305.371 271.389C305.011 271.799 304.737 272.277 304.565 272.794C304.393 273.312 304.327 273.859 304.371 274.403C304.415 274.947 304.567 275.476 304.82 275.96V275.96L304.83 275.88Z" fill="#FF8B7B"/>
<path d="M335.62 295.56L341.18 292.23L342.39 299.38C341.493 300.026 340.425 300.389 339.32 300.425C338.216 300.461 337.126 300.166 336.19 299.58L335.62 295.56Z" fill="#FF8B7B"/>
<path d="M346.35 293.85L346.64 295.98C346.722 296.526 346.606 297.084 346.312 297.552C346.019 298.019 345.567 298.366 345.04 298.53L342.39 299.38L341.18 292.23L343.69 291.86C344.307 291.771 344.933 291.931 345.432 292.304C345.931 292.678 346.261 293.234 346.35 293.85V293.85Z" fill="#FF8B7B"/>
<path d="M295.92 244.83C295.087 244.522 294.386 243.936 293.936 243.17C293.486 242.405 293.314 241.508 293.45 240.63C292.941 241.494 292.75 242.51 292.91 243.5C292.167 243.314 291.496 242.913 290.98 242.348C290.464 241.782 290.127 241.077 290.01 240.32C289.852 240.639 289.77 240.989 289.77 241.345C289.77 241.701 289.852 242.051 290.01 242.37C288.68 242.11 287.31 241.48 286.92 240.18C286.53 240.5 286.48 241.07 286.87 241.76C285.1 241.44 284.19 239.21 284.74 237.49C285.29 235.77 286.74 233.25 288.39 232.49C290.69 231.49 297.63 231.61 299.23 234.49C300.1 236.03 300.87 237.97 300.23 239.18C299.21 241 295.77 242.76 295.92 244.83Z" fill="#263238"/>
<path opacity="0.2" d="M304.91 277.74C304.575 280.777 304.912 283.85 305.895 286.742C306.878 289.635 308.484 292.276 310.6 294.48C309.771 289.966 309.319 285.39 309.25 280.8C308.117 279.353 306.744 278.111 305.19 277.13C305.08 277.26 304.97 277.38 304.87 277.51C305 277.42 304.81 277.83 304.91 277.74Z" fill="black"/>
<path d="M303.86 268.37C301.31 271.37 300.86 274.57 302.12 278.31C303.38 282.05 305.49 286.18 309.32 287.08C312.186 285.006 315.16 283.087 318.23 281.33C318.65 278.16 317.1 272.22 315.05 269.76C313 267.3 308.08 265.21 303.86 268.37Z" fill="#FF9C2F"/>
<path d="M202.71 312.2C202.71 312.2 204.32 331.54 204.71 336.34C206.16 355.55 215.71 412.82 215.71 412.82L223.71 412.73C223.71 412.73 223.47 376.99 222.71 349.73C222.5 341.73 220.43 337.84 220.03 335.59C219.61 333.15 219.92 331.8 220.57 325.73C220.88 322.89 222.24 310.97 222.24 310.97L202.71 312.2Z" fill="#CB7A63"/>
<path d="M168.32 308.67L156.49 406.34L164.78 408.15C164.78 408.15 176.97 371.94 179.58 347.36C179.99 343.5 180.44 338.61 180.87 335.61C181.22 333.11 181.59 331.9 183.59 326.06C184.49 323.45 186.98 315.53 188.08 312.2L168.32 308.67Z" fill="#CB7A63"/>
<path d="M151.8 403.84C150.66 403.54 149.55 403.02 149.3 402.43C149.243 402.264 149.238 402.085 149.286 401.917C149.335 401.749 149.434 401.6 149.57 401.49C149.794 401.285 150.086 401.171 150.39 401.17C152.02 401.17 154.72 403.83 154.83 403.95C154.856 403.988 154.87 404.033 154.87 404.08C154.87 404.126 154.856 404.172 154.83 404.21C154.808 404.249 154.777 404.282 154.738 404.305C154.699 404.328 154.655 404.34 154.61 404.34C153.66 404.256 152.72 404.089 151.8 403.84V403.84ZM150.8 401.68C150.663 401.64 150.522 401.62 150.38 401.62C150.286 401.615 150.193 401.629 150.105 401.662C150.017 401.694 149.937 401.745 149.87 401.81C149.64 402.04 149.66 402.18 149.7 402.27C149.96 402.98 152.26 403.61 154.01 403.86C153.093 402.94 152.011 402.2 150.82 401.68H150.8Z" fill="#FF9C2F"/>
<path d="M154.62 404.32C154.594 404.33 154.566 404.33 154.54 404.32C153.54 403.54 151.91 400.98 152.38 400C152.47 399.76 152.74 399.51 153.38 399.61C153.601 399.644 153.812 399.722 154.002 399.841C154.191 399.959 154.354 400.116 154.48 400.3C155.39 401.57 154.97 404.1 154.95 404.21C154.945 404.25 154.928 404.288 154.901 404.318C154.875 404.349 154.839 404.37 154.8 404.38C154.767 404.385 154.734 404.382 154.703 404.372C154.672 404.361 154.643 404.343 154.62 404.32V404.32ZM153.38 400H153.26C152.87 399.93 152.8 400.08 152.77 400.13C152.55 400.73 153.57 402.66 154.52 403.63C154.69 402.567 154.529 401.478 154.06 400.51C153.897 400.277 153.656 400.11 153.38 400.04V400Z" fill="#FF9C2F"/>
<path d="M155.93 403.31L165.93 405.98C166.112 406.03 166.272 406.14 166.383 406.293C166.493 406.446 166.549 406.632 166.54 406.82L166.16 415.4C166.155 415.581 166.114 415.759 166.04 415.924C165.965 416.089 165.859 416.237 165.727 416.361C165.595 416.485 165.44 416.581 165.27 416.644C165.101 416.708 164.921 416.737 164.74 416.73C164.644 416.74 164.546 416.74 164.45 416.73C160.87 415.73 157.74 414.65 153.27 413.45C147.99 412.04 149.16 413.03 142.94 411.45C139.19 410.45 139.65 406.07 141.29 406.29C148.78 407.29 150.12 405.29 153.61 403.49C154.337 403.156 155.16 403.093 155.93 403.31V403.31Z" fill="#263238"/>
<path d="M209.9 407.23C208.72 407.23 207.51 406.99 207.13 406.48C207.023 406.335 206.965 406.16 206.965 405.98C206.965 405.8 207.023 405.625 207.13 405.48C207.29 405.223 207.545 405.04 207.84 404.97C209.42 404.55 212.7 406.46 212.84 406.55C212.881 406.571 212.914 406.605 212.934 406.646C212.954 406.688 212.959 406.735 212.95 406.78C212.94 406.824 212.918 406.864 212.886 406.896C212.854 406.928 212.814 406.95 212.77 406.96C211.824 407.138 210.863 407.228 209.9 407.23ZM208.41 405.38C208.265 405.377 208.12 405.394 207.98 405.43C207.888 405.444 207.8 405.48 207.724 405.534C207.648 405.588 207.585 405.658 207.54 405.74C207.37 406.02 207.43 406.15 207.54 406.23C207.97 406.85 210.36 406.89 212.12 406.69C210.98 406.018 209.72 405.573 208.41 405.38Z" fill="#FF9C2F"/>
<path d="M212.75 407C212.721 407.01 212.689 407.01 212.66 407C211.53 406.49 209.29 404.42 209.5 403.36C209.5 403.1 209.72 402.79 210.34 402.74C210.562 402.718 210.787 402.742 211 402.809C211.213 402.876 211.41 402.985 211.58 403.13C212.77 404.13 213 406.68 213.01 406.8C213.01 406.839 213.001 406.877 212.984 406.912C212.966 406.947 212.941 406.977 212.91 407C212.859 407.02 212.801 407.02 212.75 407V407ZM210.48 403.15H210.35C209.95 403.15 209.92 403.34 209.9 403.4C209.84 404.04 211.31 405.65 212.48 406.4C212.375 405.328 211.946 404.313 211.25 403.49C211.038 403.302 210.764 403.198 210.48 403.2V403.15Z" fill="#FF9C2F"/>
<path d="M213.76 405.68L224.07 405.78C224.259 405.784 224.442 405.851 224.588 405.971C224.735 406.09 224.838 406.255 224.88 406.44L226.66 414.84C226.737 415.199 226.669 415.575 226.471 415.884C226.272 416.193 225.959 416.411 225.6 416.49C225.504 416.5 225.406 416.5 225.31 416.49C221.6 416.39 218.31 416.15 213.67 416.11C208.21 416.06 209.59 416.73 203.17 416.75C199.3 416.75 198.64 412.36 200.28 412.16C207.79 411.29 208.6 409.03 211.52 406.38C212.156 405.881 212.953 405.632 213.76 405.68V405.68Z" fill="#263238"/>
<path d="M188.69 312.2C193.89 296.51 200.78 274.44 203.16 260.7L205 235.11L177.22 235.42C174.66 242.225 172.98 249.329 172.22 256.56L166.84 308.67L188.69 312.2Z" fill="#FF9C2F"/>
<path opacity="0.2" d="M193.89 267.49L197.56 253.27L204.45 258.34C202.91 266 196.91 286 194 295.6C190.26 281.69 193.89 267.49 193.89 267.49Z" fill="black"/>
<path d="M222.85 311C225 288.33 227.38 252.58 222.53 239.74L221.07 233.51L191.46 235.36C191.46 235.36 191.46 239.36 191.46 240.65C191.6 245.45 192.58 259.83 192.58 259.83C192.85 264.401 194.011 268.875 196 273L198.48 278.18L201.96 312.25L222.85 311Z" fill="#FF9C2F"/>
<path d="M223.87 308.68L200.6 310.38L201.09 314.52L223.87 312.94V308.68Z" fill="#FF9C2F"/>
<path opacity="0.3" d="M223.87 308.68L200.6 310.38L201.09 314.52L223.87 312.94V308.68Z" fill="white"/>
<path d="M190.47 310.26L165.67 306L165.15 310.26L188.75 314.43L190.47 310.26Z" fill="#FF9C2F"/>
<path opacity="0.3" d="M190.47 310.26L165.67 306L165.15 310.26L188.75 314.43L190.47 310.26Z" fill="white"/>
<path d="M222.84 181.18L241.18 196.27L252.9 223.27C252.9 223.27 252.23 226.81 252.05 229.37C251.92 231.31 251.39 232.64 251.83 234.16C252.36 235.98 256.32 240.16 256.32 240.16L262.01 238.5C263.35 237.76 262.19 231.1 262.19 231.1L258.26 221.66C258.26 221.66 254.02 197.56 251.05 191.6C248.08 185.64 229 170.58 229 170.58L222.84 181.18Z" fill="#CB7A63"/>
<path d="M240.52 179.55C240.52 179.55 239.44 178.36 236.16 175.06C233.16 172.06 225.04 165.81 222.04 165C221.548 164.867 221.04 164.8 220.53 164.8C213.85 164.8 209.73 176.73 213.72 179.09C220.061 182.523 226.085 186.512 231.72 191.01L240.52 179.55Z" fill="#263238"/>
<path opacity="0.3" d="M237.67 176.36C234.6 173.42 226.35 167.36 223.32 166.64C222.826 166.521 222.318 166.464 221.81 166.47C220.38 169.2 218.95 171.99 218.94 171.98C218.93 171.97 218.86 176.09 218.86 176.09L223.57 175.46C223.57 175.46 232.89 175 237.67 176.36Z" fill="black"/>
<path d="M217.48 116.13C217.33 117.13 217.19 118.01 217.05 118.92C216.34 124.02 215.98 128.47 215.83 132.3C215.47 141.66 216.34 147.41 216.23 150.3C209.41 152.53 192.45 153.59 186.29 149.81C184.08 129.04 184.48 120.94 185.29 115.55C185.49 114.259 186.086 113.063 186.997 112.126C187.907 111.189 189.086 110.558 190.37 110.32C191.77 110.05 193.37 109.82 195.09 109.63C199.44 109.38 203.8 109.38 208.15 109.63C209.79 109.71 211.44 109.87 212.95 110.05H213.15C214.528 110.288 215.756 111.06 216.567 112.199C217.378 113.337 217.706 114.75 217.48 116.13V116.13Z" fill="#FF887B"/>
<path d="M205.46 99.57C205.12 103.57 205.36 108.25 207.68 110.26C203.996 112.881 199.955 114.959 195.68 116.43C191.55 112.94 193.81 110.54 193.81 110.54C197.81 108.79 197.81 105.82 196.89 102.54L203.1 98C204.13 97.16 205.59 98.1 205.46 99.57Z" fill="#FF887B"/>
<path opacity="0.2" d="M205.46 99.57C205.59 98.07 204.13 97.16 203.09 98.03L196.89 102.58C197.392 104.004 197.509 105.536 197.23 107.02C198.58 107.191 199.952 107.037 201.23 106.57C202.875 105.999 204.315 104.956 205.37 103.57C205.313 102.236 205.343 100.9 205.46 99.57V99.57Z" fill="black"/>
<path d="M210.44 92.49C209.58 98.14 209.36 101.49 205.87 104.15C200.63 108.15 192.94 104.87 191.87 99.02C190.93 93.78 192.53 85.4 199 83.67C205.47 81.94 211.32 86.84 210.44 92.49Z" fill="#FF887B"/>
<path d="M200.08 91.86C199.94 92.34 199.56 92.66 199.24 92.56C198.92 92.46 198.78 92 198.93 91.56C199.08 91.12 199.45 90.75 199.76 90.85C200.07 90.95 200.22 91.38 200.08 91.86Z" fill="#263238"/>
<path d="M194.37 91.44C194.22 91.93 193.85 92.24 193.53 92.15C193.21 92.06 193.08 91.58 193.22 91.1C193.36 90.62 193.74 90.29 194.05 90.39C194.36 90.49 194.51 91 194.37 91.44Z" fill="#263238"/>
<path d="M202.41 90.45C202.356 90.4451 202.304 90.4245 202.262 90.3907C202.219 90.357 202.187 90.3116 202.17 90.26C202.047 89.9075 201.842 89.5889 201.573 89.33C201.304 89.0712 200.977 88.8793 200.62 88.77C200.582 88.7631 200.545 88.7483 200.513 88.7265C200.481 88.7047 200.454 88.6765 200.433 88.6435C200.412 88.6106 200.399 88.5737 200.393 88.5352C200.387 88.4968 200.39 88.4575 200.4 88.42V88.42C200.417 88.3436 200.463 88.2768 200.528 88.2339C200.594 88.1909 200.673 88.1752 200.75 88.19V88.19C201.207 88.3197 201.626 88.5559 201.974 88.8792C202.322 89.2026 202.588 89.6039 202.75 90.05C202.765 90.0868 202.772 90.1261 202.771 90.1656C202.77 90.2051 202.762 90.2441 202.746 90.2804C202.73 90.3166 202.708 90.3494 202.679 90.3768C202.65 90.4042 202.617 90.4257 202.58 90.44L202.41 90.45Z" fill="#263238"/>
<path d="M192.65 88.7201C192.612 88.7152 192.575 88.7027 192.542 88.6834C192.508 88.6641 192.479 88.6383 192.456 88.6076C192.432 88.5769 192.416 88.5418 192.406 88.5045C192.396 88.4671 192.394 88.4282 192.4 88.3901C192.402 88.3299 192.427 88.2728 192.47 88.2301C192.781 87.8787 193.17 87.6052 193.606 87.4315C194.042 87.2579 194.513 87.1889 194.98 87.2301C195.019 87.2336 195.056 87.2452 195.091 87.2641C195.125 87.283 195.154 87.3088 195.178 87.3399C195.201 87.3709 195.218 87.4066 195.227 87.4445C195.236 87.4824 195.237 87.5218 195.23 87.5601V87.5601C195.224 87.5984 195.21 87.6352 195.19 87.6681C195.169 87.7011 195.142 87.7296 195.111 87.752C195.079 87.7744 195.043 87.7902 195.005 87.7984C194.967 87.8067 194.928 87.8073 194.89 87.8001V87.8001C194.515 87.7668 194.138 87.8238 193.79 87.9665C193.442 88.1092 193.133 88.3333 192.89 88.6201C192.861 88.6543 192.824 88.6811 192.782 88.6985C192.74 88.7159 192.695 88.7233 192.65 88.7201V88.7201Z" fill="#263238"/>
<path d="M196.42 91.8201C195.624 93.0084 194.664 94.0789 193.57 95.0001C193.811 95.272 194.109 95.488 194.442 95.6331C194.776 95.7782 195.137 95.8488 195.5 95.8401L196.42 91.8201Z" fill="#FF5652"/>
<path d="M210.93 83.6401C215.23 88.1801 213.41 94.1701 209.42 98.7201C207.9 100.44 207.13 92.7201 207.42 90.4501C206.791 90.7566 206.095 90.8998 205.396 90.8666C204.697 90.8334 204.017 90.6248 203.42 90.2601C202.774 89.7642 202.324 89.0557 202.15 88.2601C201.969 87.4833 201.882 86.6876 201.89 85.8901L200.2 86.8301C199.609 87.197 198.969 87.4797 198.3 87.6701C197.966 87.7641 197.616 87.7887 197.272 87.7422C196.928 87.6958 196.597 87.5793 196.3 87.4001C196.007 87.1912 195.79 86.8935 195.68 86.5512C195.57 86.2089 195.574 85.8402 195.69 85.5001C195.227 85.7346 194.716 85.8618 194.197 85.8722C193.678 85.8826 193.163 85.7759 192.69 85.5601C192.23 85.3299 191.86 84.9536 191.638 84.4903C191.415 84.0269 191.352 83.5028 191.46 83.0001C191.669 82.402 192.088 81.9007 192.64 81.5901C193.191 81.2874 193.779 81.0587 194.39 80.9101C195.176 80.6354 196.02 80.5666 196.84 80.7101C196.091 80.3264 195.381 79.871 194.72 79.3501C194.458 79.1487 194.243 78.8928 194.09 78.6001C194.016 78.455 193.984 78.2925 193.996 78.1303C194.009 77.9681 194.065 77.8124 194.16 77.6801C194.309 77.5436 194.488 77.4457 194.684 77.3952C194.879 77.3446 195.084 77.3428 195.28 77.3901C196.701 77.5638 198.017 78.2288 199 79.2701C198.64 78.8236 198.371 78.3105 198.21 77.7601C198.122 77.5269 198.117 77.2707 198.195 77.0341C198.274 76.7976 198.431 76.595 198.64 76.4601C199.15 76.2001 199.76 76.5501 200.2 76.9201C201.313 77.8311 202.26 78.9272 203 80.1601C202.809 79.7953 202.736 79.3807 202.79 78.9726C202.843 78.5646 203.022 78.1831 203.3 77.8801C203.592 77.6343 203.94 77.4653 204.314 77.3884C204.688 77.3116 205.075 77.3293 205.44 77.4401C206.173 77.679 206.815 78.1361 207.28 78.7501C207.74 79.3751 208.135 80.0452 208.46 80.7501C209.153 80.8476 209.787 81.1952 210.242 81.7275C210.697 82.2597 210.942 82.94 210.93 83.6401V83.6401Z" fill="#263238"/>
<path d="M211.26 98.0001C210.543 98.9392 209.502 99.5773 208.34 99.7901C206.87 99.9901 206.56 98.5001 207.29 97.0601C207.95 95.7901 209.5 94.1601 210.8 94.6101C212.1 95.0601 212.19 96.7801 211.26 98.0001Z" fill="#FF887B"/>
<path d="M193.52 97.8601C196.14 97.4171 198.793 97.1996 201.45 97.2101C200.76 98.8201 199.45 100.14 196.45 100.21C193.45 100.28 193.52 97.8601 193.52 97.8601Z" fill="#263238"/>
<path d="M197.88 98.92C196.73 98.8873 195.595 99.1858 194.61 99.78C195.18 100.097 195.829 100.243 196.48 100.2C197.626 100.238 198.759 99.9431 199.74 99.35C199.175 99.0299 198.529 98.8805 197.88 98.92Z" fill="#FF5652"/>
<path d="M193.79 97.81C193.853 98.0103 193.973 98.1884 194.134 98.3231C194.295 98.4577 194.492 98.5434 194.7 98.57C196.434 98.5199 198.163 98.3393 199.87 98.03C200.138 98.0091 200.398 97.9248 200.628 97.784C200.857 97.6432 201.05 97.4499 201.19 97.22C198.713 97.2463 196.24 97.4434 193.79 97.81Z" fill="#FAFAFA"/>
<path d="M156 121.39L152 118.27L148.59 124.27C148.59 124.27 151.84 126.6 155.29 125.03L156 121.39Z" fill="#FF887B"/>
<path d="M146.5 119.38L146.02 121.32C145.904 121.778 145.954 122.262 146.161 122.687C146.368 123.111 146.718 123.449 147.15 123.64L148.57 124.26L151.97 118.26L148.67 117.89C148.189 117.834 147.704 117.954 147.305 118.228C146.906 118.502 146.62 118.911 146.5 119.38V119.38Z" fill="#FF887B"/>
<path d="M154.24 125.4C157.944 126.251 161.73 126.69 165.53 126.71C168.35 126.71 171.25 127.23 176.39 125.2L188.08 119.76L188.31 111.21L170.18 120.06L155.51 121.49L154.24 125.4Z" fill="#FF887B"/>
<path opacity="0.2" d="M217.34 117.17C216.63 122.27 216.27 126.71 216.12 130.55C215.86 130.06 215.51 124.05 213.71 114.55C213.65 114.27 213.83 114.15 213.96 113.89C215.07 115 216.22 116.07 217.34 117.17Z" fill="black"/>
<path d="M214 111.85L214.95 110.93L215.95 109.93C216.61 109.27 217.26 108.61 217.9 107.93C219.18 106.58 220.44 105.17 221.63 103.79C222.82 102.41 224 101 225 99.4901C226.032 98.0491 226.98 96.55 227.84 95.0001L227.69 95.3501C228.064 94.4315 228.326 93.4712 228.47 92.4901C228.69 91.3601 228.84 90.1101 228.96 88.8601C229.08 87.6101 229.21 86.3501 229.32 85.0701C229.43 83.7901 229.52 82.4701 229.65 81.2101V81.1401C229.86 79.9301 230.22 78.6601 231.43 78.8701C231.815 78.9356 232.175 79.1014 232.476 79.3507C232.776 79.6 233.005 79.924 233.14 80.2901C233.54 81.6301 235.73 91.6501 235.72 93.0801C235.754 94.7415 235.545 96.3991 235.1 98.0001V98.1301L235 98.3601C234.136 100.342 233.134 102.26 232 104.1C230.885 105.886 229.677 107.612 228.38 109.27C227.11 110.92 225.75 112.49 224.38 114C223.67 114.75 222.95 115.49 222.21 116.22C221.47 116.95 220.75 117.63 219.88 118.39C219.034 119.172 217.912 119.587 216.76 119.542C215.609 119.497 214.522 118.996 213.74 118.15C212.958 117.304 212.543 116.182 212.588 115.03C212.633 113.879 213.134 112.792 213.98 112.01V112.01L214 111.85Z" fill="#FF887B"/>
<path d="M229.62 80.8799L227.74 76.3299L234.21 74.6799C234.21 74.6799 235.55 78.3099 233.21 81.0899L229.62 80.8799Z" fill="#FF887B"/>
<path d="M230 71.32L232.2 71.48C232.643 71.5031 233.065 71.6792 233.393 71.9782C233.721 72.2772 233.936 72.6807 234 73.12L234.23 74.68L227.76 76.33L227.95 73.12C227.983 72.6187 228.211 72.1502 228.585 71.814C228.958 71.4779 229.448 71.3007 229.95 71.32H230Z" fill="#FF887B"/>
<path d="M185.31 145.31L216.47 144.37L217.72 157.67L198.36 162.2L185.7 157.24L185.31 145.31Z" fill="#FF9C2F"/>
<path opacity="0.2" d="M185.31 145.31L216.47 144.37L217.72 157.67L198.36 162.2L185.7 157.24L185.31 145.31Z" fill="black"/>
<path d="M221.61 235.79L223.84 168.79C223.905 168.255 223.854 167.713 223.69 167.2C223.525 166.687 223.252 166.215 222.888 165.818C222.524 165.421 222.078 165.107 221.581 164.899C221.084 164.69 220.548 164.592 220.01 164.61L183.26 165.46C176.54 165.46 176.41 171.76 176.43 175.1L177.74 235.83L221.61 235.79Z" fill="#263238"/>
<path opacity="0.2" d="M197.8 139C197.767 139.16 197.8 139.327 197.89 139.464C197.979 139.601 198.12 139.696 198.28 139.73C198.57 139.73 198.83 139.43 198.84 139.03C198.87 138.87 198.837 138.704 198.747 138.568C198.658 138.432 198.519 138.336 198.36 138.3C198.195 138.323 198.044 138.408 197.94 138.538C197.836 138.668 197.786 138.834 197.8 139Z" fill="black"/>
<path d="M143.7 127.8C143.7 127.8 140.33 163.21 145.07 166.86C149.81 170.51 172.48 177 172.48 177L175.58 166.35L155.24 158.19L150.24 128.11L154.24 120.87C154.641 120.147 154.809 119.318 154.719 118.496C154.63 117.674 154.288 116.9 153.74 116.28L153.2 115.67C152.634 115.028 151.877 114.584 151.04 114.404C150.203 114.224 149.33 114.317 148.55 114.67L144.29 116.56C143.422 116.941 142.718 117.617 142.302 118.469C141.886 119.32 141.786 120.292 142.02 121.21L143.7 127.8Z" fill="#CB7A63"/>
<path d="M182.08 166.7C182.08 166.7 179.92 178 176 181.28C175.747 181.49 175.472 181.671 175.18 181.82L162.58 176.43L159.1 174.94C159.683 169.806 161.241 164.83 163.69 160.28C169.15 162.08 182.08 166.7 182.08 166.7Z" fill="#263238"/>
<path opacity="0.3" d="M176.77 176C176.47 176.38 176.24 179.24 175.95 181.28C175.697 181.49 175.422 181.671 175.13 181.82L162.53 176.43L176.77 176Z" fill="black"/>
<path d="M166.33 160L162.67 159C162.67 159 158.51 162.49 157.45 175.18L160.89 176.36C160.89 176.36 162.86 165.25 166.33 160Z" fill="#263238"/>
<path d="M219.2 167.63C218.698 170.45 218.973 173.353 219.995 176.029C221.016 178.705 222.746 181.052 225 182.82C226.21 183.82 236.91 186.91 237.9 173.16C238.16 169.52 237.59 165.34 235.42 162.26C233.25 159.18 228.62 157.2 224.87 158.76C221.42 160.2 219.87 164.3 219.2 167.63Z" fill="#FF9C2F"/>
<path opacity="0.4" d="M219.2 167.63C218.698 170.45 218.973 173.353 219.995 176.029C221.016 178.705 222.746 181.052 225 182.82C226.21 183.82 236.91 186.91 237.9 173.16C238.16 169.52 237.59 165.34 235.42 162.26C233.25 159.18 228.62 157.2 224.87 158.76C221.42 160.2 219.87 164.3 219.2 167.63Z" fill="black"/>
<path d="M206.06 161.32C205.06 158.53 206.44 155.32 208.59 153.32C210.74 151.32 213.79 150.15 216.59 149.08L234.45 161.08C225.79 157.31 221.87 173.2 222.67 180.19C216 171.82 208.6 168.65 206.06 161.32Z" fill="#FF9C2F"/>
<path d="M249.41 204.25L243.56 205.02L238.66 194.39C238.335 193.562 237.954 192.757 237.52 191.98C233.88 185.41 231.96 179.8 231.6 177.2C228.67 175.63 225.892 173.792 223.3 171.71C224.43 166.22 227.23 160.53 231.7 160.58C234.28 161.95 239.43 166.82 240.04 167.58C241.236 168.966 241.868 170.751 241.81 172.58L249.41 204.25Z" fill="#FF887B"/>
<path d="M243.62 203.8C245.557 203.521 247.523 203.521 249.46 203.8C249.46 203.8 256.52 206.8 258.94 207.39C259.457 207.524 259.909 207.841 260.21 208.283C260.512 208.724 260.643 209.259 260.58 209.79C260.548 209.989 260.469 210.178 260.35 210.34C259.56 211.4 257.5 211.13 256.16 211.1C253.89 211.1 251.61 210.24 249.44 210.74C243.38 212.14 242.44 208.9 242.44 208.9C242.272 208.015 242.29 207.104 242.493 206.226C242.696 205.348 243.08 204.522 243.62 203.8V203.8Z" fill="#FF887B"/>
<path opacity="0.2" d="M234.41 161.08C233.63 160.726 232.787 160.532 231.93 160.51V160.51C227.26 160.51 224.33 166.6 223.15 172.51C222.607 175.025 222.435 177.606 222.64 180.17C216.01 171.79 208.64 168.63 206.06 161.29C205.06 158.51 206.45 155.34 208.6 153.29C210.75 151.24 213.8 150.12 216.6 149.05L234.41 161.08Z" fill="black"/>
<path d="M181.52 167.56C181.79 173.18 178.26 178.1 173.52 181.71C170.75 183.82 161.13 183.97 162.21 170.23C162.49 166.59 163.68 162.54 166.29 159.82C168.9 157.1 173.77 155.82 177.29 157.95C180.44 159.89 181.36 164.17 181.52 167.56Z" fill="#FF9C2F"/>
<path opacity="0.4" d="M181.52 167.56C181.79 173.18 178.26 178.1 173.52 181.71C170.75 183.82 161.13 183.97 162.21 170.23C162.49 166.59 163.68 162.54 166.29 159.82C168.9 157.1 173.77 155.82 177.29 157.95C180.44 159.89 181.36 164.17 181.52 167.56Z" fill="black"/>
<path d="M195.46 163.29C196.84 160.67 195.98 157.34 194.15 155.02C192.32 152.7 189.63 149.66 185.45 149.64L167.45 158.81C176.57 156.38 178.07 172.67 176.23 179.47C184.06 172.18 191.85 170.15 195.46 163.29Z" fill="#FF9C2F"/>
<path opacity="0.2" d="M195.46 163.29C196.84 160.67 195.98 157.34 194.15 155.02C192.32 152.7 189.63 149.66 185.45 149.64L167.45 158.81C176.57 156.38 178.07 172.67 176.23 179.47C184.06 172.18 191.85 170.15 195.46 163.29Z" fill="black"/>
<path d="M146.56 202.78L152.28 204.45L160.08 191.05C163.299 186.129 165.883 180.82 167.77 175.25C170.921 174.215 173.976 172.906 176.9 171.34C176.63 165.52 174.72 159.24 170.26 158.61C167.47 159.61 162.17 162.09 161.45 162.77C160.05 164.022 159.148 165.737 158.91 167.6L146.56 202.78Z" fill="#FF887B"/>
<path d="M151.92 202.9C150.032 202.331 148.072 202.041 146.1 202.04C146.1 202.04 138.59 204.04 136.1 204.31C135.558 204.379 135.058 204.64 134.691 205.045C134.324 205.45 134.115 205.974 134.1 206.52C134.095 206.732 134.143 206.942 134.24 207.13C134.86 208.34 136.95 208.37 138.29 208.55C140.57 208.85 142.97 208.35 145.06 209.19C150.88 211.54 152.28 208.34 152.28 208.34C152.591 207.456 152.72 206.518 152.658 205.583C152.596 204.648 152.345 203.735 151.92 202.9Z" fill="#FF887B"/>
<path d="M217.72 147.33C207.8 147.66 194.99 148.33 185.06 148.69C185.06 148.69 183.25 130.88 184.06 123.69L177.7 126.76C175.5 122.14 175.7 121.76 174.36 116.76C174.36 116.76 183.43 111.42 188.59 109.56C190.4 108.91 192.35 109.66 194.26 109.42C194.96 112.36 197.99 113.05 201.02 113.04C204.05 113.03 206.92 112.15 207.6 109.2C209.99 109.2 213.9 109.46 216.29 109.43L217.72 147.33Z" fill="#FF9C2F"/>
<path d="M213.91 109.41C213.91 109.41 219.23 105.02 221.69 103.35C224.416 106.365 226.954 109.544 229.29 112.87L216.81 125.26C214 120.7 211 113.9 213.91 109.41Z" fill="#FF9C2F"/>
<path opacity="0.2" d="M194.14 167.35C194.439 165.904 194.54 164.423 194.44 162.95C193.98 157.65 193.76 151.95 195.44 146.95C196.383 143.679 198.169 140.713 200.62 138.35C201.858 137.185 203.36 136.337 204.996 135.877C206.633 135.417 208.356 135.36 210.02 135.71C211.565 136.191 212.975 137.031 214.134 138.16C215.293 139.29 216.169 140.678 216.69 142.21V142.3C217.388 144.33 217.45 146.524 216.868 148.59C216.285 150.656 215.086 152.494 213.43 153.86C212.071 154.938 211.059 156.392 210.52 158.04C209.446 161.542 209.363 165.273 210.28 168.82C208.28 166.91 205.12 166.44 202.35 166.41C199.581 166.301 196.812 166.618 194.14 167.35V167.35Z" fill="black"/>
<path d="M196.9 177.25C191.55 177.25 188.12 175.02 187.9 172.33C190.657 170.433 192.943 167.929 194.58 165.01C195.275 163.633 195.509 162.07 195.25 160.55C195.162 159.913 195.011 159.287 194.8 158.68C194.68 158.15 194.55 157.6 194.41 157.01C194.415 156.947 194.415 156.883 194.41 156.82L201.93 151.55L202.69 151.03L208.39 147.03C207.12 151.97 206.07 159.59 207.45 165.31C207.79 166.74 208.67 166.31 208.67 166.31C208.92 168.7 208.58 177.22 196.9 177.25Z" fill="#CB7A63"/>
<path opacity="0.1" d="M202.87 155.35C202.45 158.15 198.28 160.88 195.29 160.55C195.202 159.913 195.051 159.287 194.84 158.68C194.72 158.15 194.59 157.6 194.45 157.01C194.455 156.947 194.455 156.883 194.45 156.82L201.97 151.56L202.73 151.04C203.015 152.459 203.062 153.916 202.87 155.35V155.35Z" fill="black"/>
<path d="M210.26 141.21C208.38 149.07 207.67 153.77 202.94 157.11C195.82 162.11 186.65 156.69 186.14 148.4C185.69 140.94 188.84 129.33 197.14 127.59C200.035 126.993 203.048 127.568 205.519 129.19C207.99 130.811 209.716 133.347 210.32 136.24C210.67 137.88 210.65 139.578 210.26 141.21V141.21Z" fill="#CB7A63"/>
<path opacity="0.2" d="M209.12 146C207.86 151.09 206.61 154.51 202.94 157.1C195.83 162.1 186.65 156.68 186.14 148.39C186.071 147.137 186.091 145.88 186.2 144.63C186.49 144.93 186.88 146.22 187.25 146.4C188.35 146.95 190.47 145.16 191.69 145.12C195 145 198 146.72 201 147C203.87 147.32 206.17 146.24 209.12 146Z" fill="black"/>
<path d="M193.12 139.08C192.004 140.926 190.638 142.609 189.06 144.08C189.445 144.48 189.914 144.79 190.432 144.989C190.951 145.187 191.506 145.27 192.06 145.23L193.12 139.08Z" fill="#A24E3F"/>
<path d="M199.14 140.59C199.05 141.19 198.63 141.59 198.24 141.59C197.85 141.59 197.61 141 197.7 140.4C197.79 139.8 198.21 139.34 198.61 139.4C199.01 139.46 199.25 140 199.14 140.59Z" fill="#2E353A"/>
<path d="M191.67 139.27C191.57 139.87 191.17 140.27 190.77 140.27C190.37 140.27 190.14 139.68 190.23 139.07C190.32 138.46 190.74 138.02 191.14 138.07C191.54 138.12 191.78 138.65 191.67 139.27Z" fill="#2E353A"/>
<path d="M200.64 138.06C200.698 138.08 200.762 138.08 200.82 138.06C200.902 138.017 200.964 137.945 200.994 137.857C201.024 137.77 201.019 137.674 200.98 137.59V137.59C200.727 137.077 200.353 136.634 199.889 136.299C199.425 135.964 198.887 135.748 198.32 135.67C198.225 135.664 198.132 135.696 198.059 135.757C197.986 135.818 197.94 135.906 197.93 136V136C197.926 136.047 197.931 136.094 197.946 136.139C197.96 136.183 197.984 136.225 198.014 136.26C198.045 136.296 198.083 136.324 198.125 136.345C198.167 136.366 198.213 136.378 198.26 136.38C198.7 136.445 199.118 136.614 199.48 136.874C199.842 137.133 200.137 137.474 200.34 137.87C200.367 137.927 200.409 137.975 200.462 138.009C200.515 138.043 200.577 138.06 200.64 138.06V138.06Z" fill="#2E353A"/>
<path d="M188.72 136.32C188.779 136.319 188.837 136.304 188.889 136.277C188.942 136.249 188.986 136.209 189.02 136.16C189.274 135.775 189.614 135.453 190.013 135.221C190.412 134.989 190.859 134.851 191.32 134.82C191.368 134.813 191.413 134.796 191.454 134.771C191.495 134.746 191.531 134.713 191.559 134.673C191.587 134.634 191.607 134.59 191.617 134.543C191.628 134.496 191.629 134.447 191.62 134.4C191.604 134.326 191.568 134.259 191.514 134.206C191.461 134.153 191.394 134.116 191.32 134.1V134.1C190.745 134.134 190.186 134.301 189.686 134.587C189.187 134.873 188.76 135.271 188.44 135.75C188.385 135.827 188.362 135.923 188.377 136.017C188.392 136.11 188.444 136.194 188.52 136.25C188.577 136.295 188.647 136.32 188.72 136.32V136.32Z" fill="#2E353A"/>
<path d="M190.58 148.92C193.542 148.758 196.513 148.848 199.46 149.19C198.46 150.89 196.91 152.19 193.57 151.89C190.23 151.59 190.58 148.92 190.58 148.92Z" fill="#2E353A"/>
<path d="M195.28 150.64C194.011 150.462 192.717 150.649 191.55 151.18C192.135 151.602 192.829 151.849 193.55 151.89C194.819 152.068 196.113 151.881 197.28 151.35C196.697 150.923 196.002 150.676 195.28 150.64Z" fill="#DE5753"/>
<path d="M190.89 148.89C190.927 149.127 191.034 149.349 191.195 149.526C191.357 149.704 191.567 149.831 191.8 149.89C193.729 150.057 195.668 150.073 197.6 149.94C197.901 149.951 198.2 149.89 198.472 149.763C198.745 149.636 198.984 149.447 199.17 149.21C196.421 148.909 193.654 148.802 190.89 148.89V148.89Z" fill="white"/>
<path d="M206.91 151.26C206.91 151.26 203.91 141.4 208.25 135.65C208.25 135.65 204.25 137.1 204.59 132.59C204.59 132.59 194.26 131.78 196.96 129.59C196.96 129.59 188.02 134.22 189.06 130.88C189.854 128.748 191.411 126.988 193.43 125.94C193.43 125.94 188.97 126.04 189.81 123.78C190.88 120.89 196.43 123.25 196.43 123.25C196.43 123.25 193.05 121.5 195.03 120.34C197.43 118.94 202.36 124 202.36 124C202.36 124 204.02 118.41 209.05 126C209.05 126 214.66 127.62 213.51 134.61C213.51 134.63 215.54 141.49 206.91 151.26Z" fill="#263238"/>
<path d="M213.06 148.88C212.436 149.669 211.663 150.326 210.784 150.815C209.906 151.304 208.939 151.615 207.94 151.73C205.26 152.01 204.35 149.5 205.44 147.2C206.44 145.12 209.02 142.5 211.55 143.28C214.08 144.06 214.58 146.92 213.06 148.88Z" fill="#CB7A63"/>
</svg>
